<?xml version="1.0" encoding="UTF-8"?>
<svg id="_圖層_2" data-name="圖層 2" xmlns="http://www.w3.org/2000/svg" xmlns:xlink="http://www.w3.org/1999/xlink" viewBox="0 0 274.27 28.2">
  <defs>
    <style>
      .cls-1 {
        filter: url(#drop-shadow-1);
      }

      .cls-2 {
        fill: #ac8b6b;
      }
    </style>
    <filter id="drop-shadow-1" filterUnits="userSpaceOnUse">
      <feOffset dx="7" dy="7"/>
      <feGaussianBlur result="blur" stdDeviation="12"/>
      <feFlood flood-color="#000" flood-opacity=".75"/>
      <feComposite in2="blur" operator="in"/>
      <feComposite in="SourceGraphic"/>
    </filter>
  </defs>
  <g id="_圖層_1-2" data-name="圖層 1">
    <g class="cls-1">
      <path class="cls-2" d="m0,1.2v-.27h7.62c1.93,0,3.33.04,4.19.13.86.09,1.75.37,2.65.85s1.59,1.13,2.05,1.95c.46.82.69,1.83.69,3.02,0,1.36-.41,2.66-1.23,3.89s-1.98,2.28-3.47,3.13l1.9,2.91c.41.73,1.51,2.32,3.29,4.79s3.16,3.97,4.13,4.51c.97.54,1.91.81,2.83.81s1.93-.35,3.1-1.04l.11.36c-1.46,1.19-3.35,1.79-5.68,1.79-1.55,0-2.89-.46-4.01-1.38s-3.06-3.44-5.83-7.57c-.02-.02-.04-.05-.04-.07l-2.7-4.15-2.39.07h-2.17v10.27c0,.82.11,1.42.33,1.77.22.36.74.54,1.57.54v.27H0v-.27c.86-.04,1.4-.22,1.61-.54.21-.33.32-1,.32-2V3.62c0-.69-.09-1.27-.27-1.72s-.74-.69-1.66-.7Zm5.03.44v12.6h2.81c2.22,0,3.86-.52,4.93-1.57s1.61-2.42,1.61-4.12-.53-3.22-1.58-4.69c-1.05-1.48-2.91-2.21-5.56-2.21h-2.21Z"/>
      <path class="cls-2" d="m32.37,1.24v-.31h16.88v3.7h-.27c-.36-1.37-.67-2.18-.92-2.42-.25-.24-.86-.37-1.83-.37h-8.86v12.05h8.22c.81,0,1.33-.08,1.55-.23s.33-.37.35-.67h.27v2.53h-.27c-.06-.35-.2-.59-.43-.71-.23-.12-.64-.18-1.25-.18h-8.44v8.29c0,1.25.12,2.15.35,2.71s.6.9,1.1,1.04c.5.14,1.26.21,2.28.21h4.73c1.5,0,2.47-.05,2.89-.15.42-.1.77-.31,1.06-.62s.52-.98.67-2.02h.27v3.68h-18.36v-.27c.62-.04,1.09-.15,1.41-.36.32-.2.48-.72.48-1.56V3.92c0-.98-.09-1.68-.26-2.08s-.72-.6-1.64-.6Z"/>
      <path class="cls-2" d="m68.27,1.28l1.28,3.35-.22.04s-.34-.37-1.01-1.08c-.67-.7-1.45-1.25-2.31-1.63-.87-.38-1.85-.57-2.94-.57-1.83,0-3.29.53-4.37,1.58-1.08,1.05-1.61,2.32-1.61,3.8,0,.98.25,1.85.76,2.58s1.56,1.42,3.16,2.06c2.76.93,4.64,1.63,5.66,2.1s2,1.26,2.94,2.38c.94,1.12,1.41,2.55,1.41,4.3,0,.73-.08,1.42-.25,2.09-.17.66-.44,1.3-.82,1.91s-.83,1.17-1.36,1.67c-.53.5-1.07.89-1.61,1.15-.55.26-1.41.46-2.59.59-1.18.13-1.96.2-2.33.2h-7.16v-7.8h.27c.02,2.59.63,4.39,1.82,5.41,1.19,1.02,3.04,1.53,5.56,1.53,2.28,0,4.02-.54,5.2-1.62,1.18-1.08,1.78-2.38,1.78-3.9,0-.92-.21-1.71-.62-2.36s-.99-1.22-1.73-1.71-2.14-1.09-4.21-1.8c-2.05-.72-3.5-1.35-4.33-1.89-.83-.54-1.53-1.35-2.09-2.44-.56-1.09-.84-2.19-.84-3.32,0-2.08.71-3.82,2.14-5.23s3.3-2.11,5.62-2.11c.9,0,1.87.1,2.92.31s1.63.34,1.75.4c.05.03.1.04.15.04Z"/>
      <path class="cls-2" d="m76.08,1.24v-.31h16.88v3.7h-.27c-.36-1.37-.67-2.18-.92-2.42-.25-.24-.86-.37-1.83-.37h-8.86v12.05h8.22c.81,0,1.33-.08,1.55-.23s.33-.37.35-.67h.27v2.53h-.27c-.06-.35-.2-.59-.43-.71-.23-.12-.64-.18-1.25-.18h-8.44v8.29c0,1.25.12,2.15.35,2.71s.6.9,1.1,1.04c.5.14,1.26.21,2.28.21h4.73c1.5,0,2.47-.05,2.89-.15.42-.1.77-.31,1.06-.62s.52-.98.67-2.02h.27v3.68h-18.36v-.27c.62-.04,1.09-.15,1.41-.36.32-.2.48-.72.48-1.56V3.92c0-.98-.09-1.68-.26-2.08s-.72-.6-1.64-.6Z"/>
      <path class="cls-2" d="m99.12,1.2v-.27h7.62c1.93,0,3.33.04,4.19.13.86.09,1.75.37,2.65.85s1.59,1.13,2.05,1.95c.46.82.69,1.83.69,3.02,0,1.36-.41,2.66-1.23,3.89s-1.98,2.28-3.47,3.13l1.9,2.91c.41.73,1.51,2.32,3.29,4.79s3.16,3.97,4.13,4.51c.97.54,1.91.81,2.83.81s1.93-.35,3.1-1.04l.11.36c-1.46,1.19-3.35,1.79-5.68,1.79-1.55,0-2.89-.46-4.01-1.38s-3.06-3.44-5.83-7.57c-.02-.02-.04-.05-.04-.07l-2.7-4.15-2.39.07h-2.17v10.27c0,.82.11,1.42.33,1.77.22.36.74.54,1.57.54v.27h-6.93v-.27c.86-.04,1.4-.22,1.61-.54.21-.33.32-1,.32-2V3.62c0-.69-.09-1.27-.27-1.72s-.74-.69-1.66-.7Zm5.03.44v12.6h2.81c2.22,0,3.86-.52,4.93-1.57s1.61-2.42,1.61-4.12-.53-3.22-1.58-4.69c-1.05-1.48-2.91-2.21-5.56-2.21h-2.21Z"/>
      <path class="cls-2" d="m136.83,28.2h-.35l-9.56-23.64c-.68-1.66-1.24-2.64-1.68-2.93s-.89-.43-1.35-.43v-.27h6.2v.27c-.55-.04-.82.18-.82.64,0,.18.04.38.11.58l8.34,20.67,8.26-20.66c.11-.28.16-.5.16-.67,0-.41-.31-.6-.94-.56v-.27h4.03v.27c-.28,0-.57.04-.88.12-.31.08-.63.39-.96.94s-.5.84-.51.88l-10.05,25.06Z"/>
      <path class="cls-2" d="m165.04,15.42h-7.88l-4.06,10.14c-.28.73-.42,1.18-.42,1.35,0,.4.3.6.89.6v.27h-3.99v-.27c.53,0,.98-.13,1.35-.39.36-.26.77-.94,1.2-2.04L161.86.53h.48l9.57,23.71c0,.12.25.7.74,1.72s1.24,1.54,2.25,1.54v.27h-6.27v-.27c.57,0,.86-.22.86-.67,0-.3-.14-.79-.42-1.46-.05-.05-.09-.13-.13-.24-.02-.12-.04-.18-.05-.18l-3.84-9.54Zm-7.62-.75h7.26l-3.63-9.15-3.63,9.15Z"/>
      <path class="cls-2" d="m197.18,0l-1.28,3.24h-.27c.05-.19.07-.46.07-.78,0-.28-.1-.46-.3-.54-.2-.08-.52-.12-.96-.12h-7v22.97c0,.95.08,1.59.23,1.94.15.35.36.56.62.65.26.09.68.14,1.27.14v.27h-7.27v-.27c.91-.06,1.48-.24,1.71-.53.23-.29.35-.9.35-1.82V1.8h-6.71c-.68,0-1.12.04-1.33.12-.21.08-.31.28-.31.59,0,.16.05.4.15.73h-.27l-1.28-3.24h.27c.22.44.43.7.65.79.21.09.67.14,1.37.14h17.82c.7,0,1.21-.05,1.52-.14.31-.09.54-.36.68-.79h.27Z"/>
      <path class="cls-2" d="m208.38.93v.27c-.35-.04-.74.02-1.18.16-.43.14-.69.36-.77.64s-.12.94-.12,1.99v20.6c0,1.12.05,1.8.14,2.05.09.25.27.46.53.62.26.16.73.25,1.39.25v.27h-7.16v-.27c.9,0,1.46-.17,1.68-.52.22-.35.33-1.13.33-2.36V4.23c0-1.28-.12-2.11-.36-2.5-.24-.39-.79-.57-1.64-.52v-.27h7.16Z"/>
      <path class="cls-2" d="m228.72.53c3.77,0,6.85,1.15,9.24,3.44,2.39,2.29,3.59,5.15,3.59,8.58,0,4.41-1.38,8.12-4.16,11.14-2.77,3.01-6.45,4.52-11.03,4.52-3.72,0-6.76-1.21-9.13-3.65-2.37-2.43-3.55-5.35-3.55-8.75,0-2.29.57-4.65,1.71-7.07,1.14-2.42,2.86-4.39,5.16-5.91s5.02-2.29,8.17-2.29Zm-.11,26.25c1.85,0,3.67-.5,5.47-1.49,1.8-.99,3.21-2.35,4.25-4.09,1.03-1.74,1.55-3.52,1.55-5.36,0-2.6-.7-4.96-2.09-7.09s-3.2-3.79-5.41-5-4.27-1.8-6.15-1.8c-2.66,0-5.08,1-7.25,3.01-2.17,2.01-3.25,4.5-3.25,7.47,0,3.8,1.32,7.14,3.97,10.03s5.62,4.32,8.91,4.32Z"/>
      <path class="cls-2" d="m269.07.93h5.2v.27c-.79.02-1.34.19-1.64.5-.3.31-.46.96-.46,1.96v24.44l-21.42-22.81v19.86c0,.63.05,1.1.15,1.4.1.3.24.51.42.62s.64.22,1.37.33v.27h-5.16v-.27c.92,0,1.5-.16,1.72-.49.22-.33.34-1.11.34-2.35V6.5c0-1.59-.22-2.89-.67-3.9-.44-1.01-1.47-1.48-3.07-1.4v-.27h5.05l20.12,21.43V3.41c0-1.02-.18-1.64-.55-1.87-.36-.22-.83-.34-1.4-.34v-.27Z"/>
    </g>
  </g>
</svg>