<?xml version="1.0" encoding="UTF-8"?>
<svg id="_圖層_2" data-name="圖層 2" xmlns="http://www.w3.org/2000/svg" xmlns:xlink="http://www.w3.org/1999/xlink" viewBox="0 0 649.67 31.3">
  <defs>
    <style>
      .cls-1 {
        fill: #fff;
      }

      .cls-2 {
        filter: url(#drop-shadow-1);
      }

      .cls-3 {
        fill: #ab8a6b;
      }
    </style>
    <filter id="drop-shadow-1" filterUnits="userSpaceOnUse">
      <feOffset dx="7" dy="7"/>
      <feGaussianBlur result="blur" stdDeviation="12"/>
      <feFlood flood-color="#000" flood-opacity=".75"/>
      <feComposite in2="blur" operator="in"/>
      <feComposite in="SourceGraphic"/>
    </filter>
  </defs>
  <g id="_圖層_4" data-name="圖層 4">
    <g>
      <g>
        <path class="cls-1" d="m25.05,8.85c-1.29,5.45-3.63,10.07-7.39,13.76,3.76,2.61,8.28,4.36,13.24,5.45l-.1.4c-1.58.17-2.77,1.15-3.37,2.74-4.72-1.45-8.75-3.6-11.98-6.6-3.83,2.97-8.81,5.21-15.22,6.63l-.23-.46c5.88-1.95,10.4-4.62,13.76-7.89-3.14-3.53-5.41-8.12-6.67-14.03H.53l-.26-.92h24.46l2.08-2.71s2.31,1.81,3.7,3.1c-.1.36-.43.53-.92.53h-4.52Zm-17.29,0c1.49,5.15,4.16,9.11,7.72,12.11,2.97-3.47,4.79-7.56,5.68-12.11H7.76ZM11.98.6c9.27,1.72,6.83,8.35,3.56,6.14-.46-2.05-2.24-4.46-3.86-5.91l.3-.23Z"/>
        <path class="cls-1" d="m44.05,10.5c2.01,5.91.83,10.03-.59,12.08-.92,1.45-2.54,1.82-3.43.96-.69-.73-.46-1.82.26-2.64,1.68-1.65,3.3-5.88,3.23-10.36l.53-.03Zm8.19-3.6c-.03.43-.36.79-1.16.89v17.62c0,.86.36,1.12,2.01,1.12h4.29c1.75,0,3.14-.03,3.76-.07.53-.07.79-.2.99-.59.4-.69.96-2.74,1.58-5.35h.4l.1,5.58c1.06.4,1.35.76,1.35,1.39,0,1.55-1.58,2.18-8.42,2.18h-4.46c-3.63,0-4.75-.66-4.75-3.37V6.48l4.29.43Zm5.15,3.14c-.63-2.97-2.94-6.54-4.92-8.94l.36-.23c10.46,4.36,7.99,11.75,4.55,9.18Zm9.9,12.91c-.36-3.1-1.42-8.12-4.19-11.55l.33-.26c10.63,6.93,6.6,15.18,3.86,11.82Z"/>
        <path class="cls-1" d="m88.28,20.21c7.43,1.39,5.08,6.3,2.51,4.49-.33-1.29-1.45-2.87-2.51-3.89v9.44c0,.3-1.29.89-2.34.89h-.56v-7.66c-1.62,2.18-3.63,4.03-6.11,5.58l-.36-.5c2.61-2.44,4.49-5.84,5.61-9.31h-4.42l-.26-.96h5.54v-4.62l4.06.4c-.07.46-.36.76-1.16.89v3.33h1.52l1.52-2.08s1.78,1.45,2.84,2.51c-.1.36-.43.53-.86.53h-5.02v.96Zm-8.09-6.27c4.32-2.05,7.95-5.12,10.23-8.42h-9.01l-.26-.96h11.62V.5l4.42.43c-.1.46-.36.79-1.22.92v2.71h7.06l1.82-2.34s2.08,1.62,3.33,2.77c-.07.36-.43.53-.89.53h-11.32v.99c11.75,1.42,11.62,7.49,8.25,6.63-1.72-1.88-5.31-4.32-8.25-5.84v7.03c0,.26-1.42.79-2.61.79h-.59v-7.76c-2.97,3.1-7.26,5.48-12.31,7.06l-.26-.5Zm22.77,5.31c1.65,3.1,4.52,5.61,7.36,6.83l-.07.3c-1.12.26-1.95,1.19-2.34,2.71-2.51-2.05-4.36-5.15-5.51-9.21v10.43c0,.3-1.32.83-2.41.83h-.59v-8.51c-1.95,2.71-4.62,4.88-7.92,6.63l-.33-.46c3.23-2.48,5.58-5.91,6.96-9.54h-3.7l-.23-.96h5.21v-4.55l4.12.43c-.07.43-.33.76-1.12.86v3.27h2.31l1.68-2.31s1.95,1.58,3.07,2.74c-.03.36-.36.53-.83.53h-5.68Z"/>
        <path class="cls-1" d="m142.4,9.41c1.35,5.15,4.36,9.83,7.85,12.18l-.07.36c-1.42.92-2.11,2.21-2.34,3.86-3.2-3.56-5.12-9.8-6.07-15.97v20.17c0,.36-1.32,1.12-2.48,1.12h-.56v-15.45c-2.08,4.06-5.08,7.56-9.04,10.36l-.36-.36c4.22-4.19,7.03-10.23,8.45-16.27h-4.46l-.07-.26c-.17.2-.43.3-.79.3h-4.75v2.31c7.89,2.87,5.05,8.32,2.34,5.97-.2-1.68-1.29-3.73-2.34-5.25v17.69c0,.33-1.29.96-2.44.96h-.59v-13.96c-1.49,2.77-3.37,5.25-5.71,7.39l-.46-.4c2.9-3.99,4.82-9.41,5.84-14.72h-5.12l-.26-.96h5.71V.57l4.22.43c-.07.5-.3.83-1.19.96v6.53h.99l1.65-2.24s1.65,1.35,2.77,2.44l-.07-.23h5.68V.6l4.26.46c-.1.46-.33.79-1.22.92v6.47h2.97l1.78-2.31s1.95,1.58,3.17,2.74c-.1.36-.43.53-.89.53h-6.4Z"/>
        <path class="cls-1" d="m171.44,4.17c-.1.4-.53.66-1.29.59-2.74,6.07-6.6,10.36-11.22,13.1l-.36-.33c3.37-3.37,6.67-8.98,8.35-15.08l4.52,1.72Zm6.8,14.39c11.32,6.34,8.58,14.98,4.92,11.85-.17-1.29-.56-2.67-1.09-4.06-4.49,1.19-10.63,2.54-18.09,3.79-.3.46-.63.76-1.02.89l-1.45-4.19s.89-.2,1.19-.5c2.77-2.81,6.73-10.23,7.99-14.39l4.69,1.91c-.16.36-.56.63-1.29.56-2.14,3.83-6.37,9.14-10,12.54,4.13-.2,10.83-.76,17.62-1.49-1.02-2.44-2.47-4.85-3.89-6.7l.43-.23Zm2.61-16.11c-.4.5-1.39.73-2.67.83,1.45,4.79,5.25,9.21,10.76,11.35l-.07.33c-1.35.46-2.47,1.68-2.84,2.97-4.85-3.23-7.59-8.32-8.75-14.88h-3.63l-.3-.96h3.07l1.22-1.85,3.2,2.21Z"/>
        <path class="cls-1" d="m228.13,3.51c-.23.3-.73.53-1.39.69v25.64c-.03.26-1.52,1.06-2.67,1.06h-.46v-2.28h-20.63v1.35c0,.4-1.19,1.19-2.54,1.19h-.53V1.2l3.37,1.49h20l1.62-1.82,3.23,2.64Zm-4.52,24.16V3.64h-20.63v24.03h5.64l-1.55-2.18c.96-.66,1.12-.92,1.12-1.39v-2.01c-1.45.63-3,1.19-4.65,1.62l-.3-.56c2.84-1.16,5.38-2.74,7.19-4.55h-1.72v.36c0,.23-1.22.79-2.24.79h-.4v-7.29l2.81,1.16h8.65l1.29-1.29,2.67,1.98c-.17.2-.53.43-1.02.5v3.73s-.03.07-.07.1l2.05,1.85c-.2.2-.5.26-1.09.07-.73.33-1.85.83-2.87,1.25,5.31,2.71,3.86,5.74,1.88,4.69-1.09-1.52-3.96-4.09-7.53-6.04l.23-.5c1.75.43,3.2.89,4.36,1.39.76-.73,1.55-1.58,2.15-2.31-.43.13-.92.26-1.32.26h-.46v-.69h-4.13c-.79.83-1.78,1.55-2.9,2.18v3.6c1.39-.36,2.9-.83,4.49-1.32l.13.46c-1.22.73-3.7,2.24-6.24,3.66-.13.23-.3.4-.46.49h14.92Zm-3.37-18.88s1.78,1.29,2.87,2.28c-.1.36-.43.53-.89.53h-18.29l-.26-.96h8.15v-2.38h-6.27l-.26-.96h6.54v-2.9l3.76.36c-.03.4-.26.66-.92.76v1.78h2.84l1.49-1.82s1.65,1.29,2.71,2.24c-.07.36-.4.53-.86.53h-6.17v2.38h4.09l1.49-1.85Zm-2.44,5.78h-9.08v3.07h9.08v-3.07Z"/>
        <path class="cls-1" d="m410.02,5.62c-.03,3.2-.03,6.44-.03,9.77v1.68c0,3.23,0,6.53.03,9.77l3.3.36v1.19h-10.5v-1.19l3.27-.36c.07-3.2.07-6.47.07-9.77v-1.68c0-3.23,0-6.54-.07-9.77l-3.27-.36v-1.19h10.5v1.19l-3.3.36Z"/>
        <path class="cls-1" d="m442.83,27.2v1.19h-9.64v-1.19l2.87-.33-5.97-11.09-3.3,4.03c0,2.11,0,4.52.07,7.03l3.2.36v1.19h-10.3v-1.19l3.27-.36c.07-3.2.07-6.47.07-9.77v-1.68c0-3.23,0-6.54-.07-9.77l-3.27-.36v-1.19h10.43v1.19l-3.33.36c-.07,3.2-.07,6.44-.07,9.77v2.48l9.74-12.11-3.04-.5v-1.19h8.35v1.19l-3.43.5-5.97,7.23,7.72,13.89,2.67.33Z"/>
        <path class="cls-1" d="m466.62,21.86l-.1,6.54h-18.85v-1.19l3.27-.36c.07-3.2.07-6.47.07-9.77v-1.68c0-3.23,0-6.54-.07-9.77l-3.27-.36v-1.19h18.15l.1,6.37h-1.75l-1.09-4.92h-8.22c-.03,3.17-.03,6.4-.03,9.8h5.25l.5-3.56h1.52v8.38h-1.52l-.46-3.47h-5.28c0,3.66,0,7,.03,10.26h8.91l1.09-5.08h1.75Z"/>
        <path class="cls-1" d="m495.17,27.2v1.19h-10.13v-1.19l3.4-.4-2.11-6.4h-8.18l-2.05,6.37,3.43.43v1.19h-7.92v-1.19l2.9-.43,7.59-22.84h2.44l7.79,22.94,2.84.33Zm-9.27-8.15l-3.73-11.29-3.6,11.29h7.33Z"/>
        <path class="cls-1" d="m528.1,10.3c-.2.23-.63.5-1.22.63v16.24c0,2.24-.53,3.6-4.69,3.99-.17-1.02-.4-1.78-.96-2.28-.63-.5-1.52-.89-3.4-1.16v-.5s4.22.3,5.05.3c.66,0,.86-.23.86-.76v-4.42h-15.97c-.83,3.3-2.87,6.47-7.56,8.78l-.33-.36c4.69-3.89,5.41-8.88,5.41-13.99v-6.5c-1.55,1.12-3.2,2.11-4.88,2.87l-.33-.36c3.93-2.77,7.82-7.82,9.64-12.28l4.55,1.29c-.13.33-.4.5-1.29.4-.46.73-.99,1.42-1.55,2.15h5.68l1.78-1.75,3.1,2.74c-.26.26-.63.33-1.32.36-1.25,1.16-3.14,2.74-4.88,3.83h7.62l1.42-1.68,3.27,2.47Zm-17.46-5.02c-1.06,1.22-2.24,2.41-3.53,3.53l1.78.69h6.01c.79-1.19,1.65-2.9,2.21-4.22h-6.47Zm-2.28,11.45c0,1.49-.07,3.07-.36,4.65h6.34v-5.05h-5.97v.4Zm0-1.35h5.97v-4.92h-5.97v4.92Zm8.91-4.92v4.92h6.47v-4.92h-6.47Zm6.47,10.92v-5.05h-6.47v5.05h6.47Z"/>
        <path class="cls-1" d="m546.64,21.46c1.49-.43,3-.89,4.55-1.35l.13.43c-2.01,1.32-4.98,3.27-9.21,5.64-.13.43-.4.76-.76.89l-1.91-3.73c.89-.2,2.38-.56,4.19-1.06v-11.35h-3.83l-.26-.96h4.09V1.26l4.22.43c-.1.46-.36.79-1.22.92v7.36h1.02l1.49-2.31s1.72,1.62,2.64,2.74c-.07.36-.4.53-.86.53h-4.29v10.53Zm22.34,5.45c1.09.36,1.39.69,1.39,1.25,0,1.49-1.62,1.95-8.78,1.92h-4.75c-3.63,0-4.85-.63-4.85-3.3v-12.58l-2.94,1.29-.66-.76,3.6-1.55V5.09l4.12.46c-.07.43-.4.79-1.16.89v5.45l3.53-1.55V.44l4.09.43c-.1.46-.36.79-1.22.92v7.29l3.86-1.65.07-.03,1.55-1.58,2.81,2.9c-.26.26-.63.4-1.32.43-.76,3.89-2.24,9.54-4.16,13.27l-.43-.23c.79-4.09,1.32-9.77,1.52-13.73l-3.89,1.68v13.3c0,.33-1.25.99-2.34.99h-.53v-13.04l-3.53,1.55v13.1c0,.96.4,1.29,2.18,1.29h4.65c1.98,0,3.43-.03,4.13-.1.53-.03.83-.17,1.09-.5.36-.59.89-2.31,1.49-4.62h.4l.1,4.79Z"/>
        <path class="cls-1" d="m592.51,5.42c-.59.59-1.22,1.19-1.95,1.78l4.09.33c-.03.43-.26.73-1.02.86v2.11h1.45l1.62-1.98s1.42,1.09,2.51,2.05c.5-.53.96-1.02,1.35-1.52l3.3,2.64c-.3.26-.66.36-1.39.1-1.25,1.19-2.74,2.38-4.46,3.56h6.01l1.78-2.18s2.01,1.48,3.23,2.61c-.1.36-.43.53-.86.53h-11.58c-1.55.99-3.27,1.98-5.08,2.87h9.6l1.52-1.72,3.27,2.51c-.2.26-.69.56-1.39.69v9.5c-.03.2-1.55.79-2.57.79h-.5v-1.78h-11.45v1.12c0,.26-1.29.96-2.57.96h-.46v-10c-2.41.96-4.92,1.78-7.49,2.44l-.23-.5c2.61-.99,5.25-2.24,7.72-3.6v-1.82l1.78.76c1.22-.73,2.41-1.49,3.53-2.25h-12.18l-.26-.96h10.69v-3.89h-4.98l-.26-.96c-1.75.86-3.76,1.62-5.97,2.24l-.23-.4c4.16-1.85,7.26-4.32,9.5-6.93h-8.75l-.3-.96h9.83c1.06-1.35,1.88-2.71,2.51-4.03l4.29,1.55c-.2.43-.66.59-1.35.53-.4.66-.89,1.29-1.42,1.95h10.33l2.01-2.44s2.31,1.68,3.7,2.87c-.1.36-.43.53-.89.53h-10.2c2.84,2.11,7.79,3.33,11.62,3.7l-.07.43c-1.35.59-2.24,1.45-2.44,2.64-4.09-1.16-7.92-3.7-10.36-6.77h-4.59Zm-1.98,1.82c-1.45,1.19-3.2,2.28-5.21,3.27h5.21v-3.27Zm-.53,12.91v3.4h11.45v-3.4h-11.45Zm11.45,8.09v-3.73h-11.45v3.73h11.45Zm-7.82-16.77v3.89c1.75-1.29,3.33-2.61,4.69-3.89h-4.69Z"/>
        <path class="cls-1" d="m618.88,8.33c8.12.56,6.14,6.47,3.14,4.69-.5-1.58-2.05-3.4-3.4-4.42l.26-.26Zm10.1-1.06c-1.42,3.93-4.03,11.22-4.46,12.84-.3,1.06-.56,2.11-.56,2.97.07,1.62,1.19,2.9,1.09,5.68-.07,1.58-.96,2.54-2.41,2.54-.69,0-1.32-.56-1.49-1.65.53-3.43.36-6.24-.4-6.73-.46-.33-.96-.46-1.65-.53v-.66h1.49c.46,0,.59,0,.96-.63q.73-1.22,6.87-13.93l.56.1Zm-7.66-6.17c8.38.69,6.5,6.73,3.4,5.02-.56-1.68-2.28-3.63-3.66-4.75l.26-.26Zm24.95,7.56s2.14,1.75,3.4,2.94c-.07.36-.43.5-.89.5h-8.81v6.47h3.53l1.58-1.72,3.27,2.51c-.2.26-.66.56-1.35.69v10c-.03.23-1.55.92-2.61.92h-.53v-2.61h-10.96v1.78c0,.3-1.32.96-2.64.96h-.46v-13.93l3.3,1.39h3.66v-6.47h-8.65l-.26-.92h8.91v-5.78c-2.74.33-5.58.56-8.25.66l-.1-.56c5.68-.99,12.84-3,16.47-4.62l3.3,3.1c-.33.3-1.02.33-1.98-.03-1.75.36-3.89.73-6.24,1.06v6.17h4.42l1.88-2.51Zm-13.37,10.86v7.89h10.96v-7.89h-10.96Z"/>
      </g>
      <g class="cls-2">
        <path class="cls-3" d="m291.06,2.28s2.31,1.68,3.73,2.94c-.1.36-.43.53-.89.53h-12.64v4.32h7.56l1.55-1.75,3.37,2.61c-.23.23-.73.53-1.39.66v15.31c0,2.21-.53,3.56-4.52,3.93-.1-.99-.26-1.75-.76-2.18-.56-.5-1.35-.89-3.04-1.12v-.5s3.5.26,4.36.26c.59,0,.76-.26.76-.73v-15.55h-18.52v18.62c0,.36-1.35,1.16-2.67,1.16h-.5V8.61l3.43,1.45h7.2v-4.32h-13.1l-.26-.96h13.37V0l4.36.4c-.07.46-.33.79-1.19.92v3.47h7.79l2.01-2.51Zm-9.93,20.76v6.17c0,.17-.96.69-2.51.69h-.53v-6.87h-6.24l-.26-.96h6.5v-4.03h-5.45l-.26-.96h8.22c.63-1.65,1.32-3.99,1.75-5.64l3.86,1.12c-.13.4-.56.66-1.25.63-.89,1.12-2.18,2.64-3.47,3.89h2.01l1.52-1.78s1.72,1.25,2.74,2.21c-.07.36-.4.53-.83.53h-5.81v4.03h2.38l1.65-2.01s1.88,1.42,3.04,2.44c-.1.36-.43.53-.89.53h-6.17Zm-7.13-11.42c6.7,1.95,3.89,6.83,1.45,4.72-.07-1.52-.96-3.4-1.78-4.52l.33-.2Z"/>
        <path class="cls-3" d="m327.06,6.9s2.61,1.45,4.29,2.44c-.03.36-.36.63-.79.73l-15.15,2.77v12.05c0,1.02.46,1.35,2.21,1.35h4.42c1.58,0,3.1-.03,3.7-.1.43,0,.89-.03,1.22-.1.33-.03.83-.13,1.22-.3h.33l.17.03c1.22.43,1.68.83,1.68,1.45,0,1.55-1.68,2.14-8.65,2.14l-4.42-.03c-3.76,0-5.08-.66-5.08-3.6v-12.31l-11.16,2.01-.43-.89,11.58-2.08V.73l4.39.46c-.03.43-.36.83-1.19.92v9.77l9.93-1.82,1.72-3.17Z"/>
        <path class="cls-3" d="m336.66,30.46c1.91-1.91,3.86-5.12,4.98-8.65l4.03,1.72c-.17.36-.63.59-1.35.53-1.85,3.14-4.49,5.41-7.23,6.77l-.43-.36Zm31.02-27.2c-.23.26-.73.56-1.39.69v22.91c0,2.21-.43,3.5-4.12,3.86-.1-.96-.3-1.72-.69-2.18-.5-.5-1.22-.83-2.71-1.06v-.5s3.14.2,3.8.2c.56,0,.73-.2.73-.69v-8.32h-5.41c-.46,4.69-2.05,9.24-7.1,12.51l-.43-.33c2.54-2.71,3.76-5.84,4.36-9.27-.13.03-.3.07-.46.07h-17.29l-.26-.92h3.37V6.44h-2.54l-.26-.96h2.81V.56l3.99.43c-.07.4-.33.69-1.09.83v3.66h4.92V.56l4.16.43c-.1.43-.36.76-1.16.89v3.6h.17l1.29-2.01s1.52,1.45,2.38,2.44c-.07.36-.4.53-.83.53h-3v13.8h.13l1.45-2.21s1.39,1.29,2.34,2.34c.33-2.18.4-4.46.4-6.77V1.16l3.37,1.32h4.39l1.45-1.72,3.27,2.51Zm-24.72,3.17v3.66h4.92v-3.66h-4.92Zm0,8.58h4.92v-3.96h-4.92v3.96Zm0,5.21h4.92v-4.26h-4.92v4.26Zm3.96,1.85c7.79,1.98,5.28,7.49,2.51,5.45-.3-1.82-1.65-3.93-2.84-5.21l.33-.23Zm16.37-4.85v-6.57h-5.21v2.9c0,1.22-.03,2.44-.1,3.66h5.31Zm-5.21-13.8v6.27h5.21V3.43h-5.21Z"/>
      </g>
    </g>
  </g>
</svg>