<?xml version="1.0" encoding="UTF-8"?>
<svg id="_圖層_2" data-name="圖層 2" xmlns="http://www.w3.org/2000/svg" xmlns:xlink="http://www.w3.org/1999/xlink" viewBox="0 0 208.8 32.15">
  <defs>
    <style>
      .cls-1 {
        fill: #fff6a2;
      }

      .cls-2 {
        filter: url(#drop-shadow-1);
      }
    </style>
    <filter id="drop-shadow-1" filterUnits="userSpaceOnUse">
      <feOffset dx="3.85" dy="3.85"/>
      <feGaussianBlur result="blur" stdDeviation="7.69"/>
      <feFlood flood-color="#050001" flood-opacity=".8"/>
      <feComposite in2="blur" operator="in"/>
      <feComposite in="SourceGraphic"/>
    </filter>
  </defs>
  <g id="_圖層_3" data-name="圖層 3">
    <g class="cls-2">
      <path class="cls-1" d="m28.47,31.68h-5.8v-4.72c-2.95,3.29-6.46,4.93-10.55,4.93-3.03,0-5.44-.85-7.22-2.56-1.78-1.7-2.67-4.06-2.67-7.07V3.93c0-1.11-.13-1.81-.39-2.11-.26-.3-.88-.45-1.85-.45v-.31h8.13v.31c-.86,0-1.47.13-1.82.4-.35.27-.53.91-.53,1.92v16.81c0,3.52.82,6.03,2.47,7.54,1.65,1.5,3.52,2.25,5.63,2.25,3.31,0,6.24-1.49,8.8-4.47V5.11c0-1.81-.16-2.89-.48-3.23-.32-.34-.82-.51-1.5-.51h-.29v-.31h8.06v.31c-1,.05-1.62.22-1.88.5s-.39.8-.39,1.58v24.92c0,.98.05,1.63.15,1.93.1.3.29.56.59.76.3.2.81.3,1.53.3v.31Z"/>
      <path class="cls-1" d="m36.18,1.37v-.31h8.73c3.1,0,5.36.35,6.77,1.04,1.41.69,2.43,1.56,3.08,2.59.64,1.03.97,2.4.97,4.09,0,2.59-.89,4.54-2.68,5.85-1.79,1.3-4.21,1.93-7.27,1.87v-.31c1.94,0,3.52-.6,4.73-1.79,1.21-1.19,1.82-2.76,1.82-4.7,0-1.51-.29-2.85-.88-4.02-.59-1.17-1.42-2.06-2.48-2.67-1.07-.61-2.69-.92-4.88-.92h-2.18v26.19c0,1.48.17,2.36.5,2.65s.96.43,1.89.43v.31h-8.08v-.31c1.44,0,2.16-.66,2.16-1.97V4.05c0-1.08-.14-1.8-.42-2.15-.28-.35-.86-.53-1.74-.53Z"/>
      <path class="cls-1" d="m87.08,0l-1.45,3.7h-.31c.05-.22.08-.52.08-.89,0-.32-.12-.52-.34-.61-.23-.09-.59-.14-1.09-.14h-7.98v26.19c0,1.08.09,1.82.26,2.21.17.39.41.64.71.75.3.1.78.16,1.44.16v.31h-8.29v-.31c1.04-.07,1.69-.27,1.95-.6.26-.33.4-1.03.4-2.08V2.06h-7.65c-.77,0-1.28.05-1.51.14-.23.09-.35.32-.35.68,0,.18.05.46.17.83h-.31l-1.46-3.7h.31c.25.5.49.8.74.9.24.1.76.16,1.57.16h20.32c.8,0,1.38-.05,1.73-.16.35-.1.61-.4.78-.9h.31Z"/>
      <path class="cls-1" d="m108.23.6c4.3,0,7.81,1.31,10.54,3.92,2.73,2.61,4.09,5.87,4.09,9.78,0,5.03-1.58,9.26-4.74,12.7-3.16,3.44-7.35,5.15-12.58,5.15-4.24,0-7.71-1.39-10.41-4.16-2.7-2.77-4.05-6.1-4.05-9.98,0-2.62.65-5.31,1.95-8.06,1.3-2.76,3.26-5.01,5.88-6.74,2.62-1.74,5.72-2.61,9.31-2.61Zm-.12,29.93c2.11,0,4.18-.56,6.24-1.69,2.05-1.13,3.66-2.68,4.84-4.67,1.18-1.98,1.77-4.02,1.77-6.11,0-2.97-.79-5.66-2.38-8.09-1.59-2.42-3.64-4.32-6.17-5.69-2.53-1.37-4.87-2.06-7.02-2.06-3.03,0-5.79,1.14-8.26,3.43-2.47,2.29-3.71,5.13-3.71,8.52,0,4.34,1.51,8.15,4.53,11.43,3.02,3.28,6.41,4.93,10.16,4.93Z"/>
      <path class="cls-1" d="m159.03,32.15h-.51l-8.45-23.34-8.3,23.34h-.47l-9.96-27.33c-.4-1.11-.83-1.96-1.29-2.56-.46-.6-1.12-.89-2-.89v-.31h7.23v.31c-.7,0-1.06.26-1.06.77,0,.31.11.77.33,1.39l8.11,22.26,6.66-18.81-.64-1.79c-.57-1.57-1.11-2.59-1.63-3.09s-1.11-.74-1.76-.74v-.31h7.15v.31c-.69,0-1.03.3-1.03.89,0,.18.15.66.44,1.43l8.09,22.18,8.08-22.57c.01-.06.03-.09.04-.1l.31-1.06c0-.51-.36-.77-1.09-.77v-.31h4.47v.31c-1.22.01-2.18,1-2.89,2.97l-9.85,27.81Z"/>
      <path class="cls-1" d="m202.88,1.06h5.92v.31c-.9.03-1.52.22-1.87.57-.35.35-.52,1.1-.52,2.23v27.87l-24.42-26v22.64c0,.72.05,1.25.17,1.6.11.35.27.58.48.71s.73.25,1.56.37v.31h-5.88v-.31c1.05,0,1.71-.19,1.96-.56.26-.37.38-1.27.38-2.68V7.42c0-1.81-.25-3.3-.76-4.44-.51-1.15-1.67-1.68-3.5-1.6v-.31h5.76l22.95,24.43V3.89c0-1.16-.21-1.87-.62-2.13s-.95-.38-1.6-.38v-.31Z"/>
    </g>
  </g>
</svg>