<?xml version="1.0" encoding="UTF-8"?>
<svg id="_圖層_2" data-name="圖層 2" xmlns="http://www.w3.org/2000/svg" xmlns:xlink="http://www.w3.org/1999/xlink" viewBox="0 0 1015.41 44.35">
  <defs>
    <style>
      .cls-1 {
        filter: url(#drop-shadow-1);
      }

      .cls-2 {
        fill: #ab8a6b;
        stroke: #a78769;
        stroke-miterlimit: 10;
        stroke-width: .5px;
      }
    </style>
    <filter id="drop-shadow-1" filterUnits="userSpaceOnUse">
      <feOffset dx="7" dy="7"/>
      <feGaussianBlur result="blur" stdDeviation="12"/>
      <feFlood flood-color="#000" flood-opacity=".75"/>
      <feComposite in2="blur" operator="in"/>
      <feComposite in="SourceGraphic"/>
    </filter>
  </defs>
  <g id="_圖層_4" data-name="圖層 4">
    <g class="cls-1">
      <path class="cls-2" d="m24.16,24.1h-12.19l-6.29,15.67c-.43,1.13-.65,1.82-.65,2.09,0,.62.46.93,1.38.93v.42H.25v-.42c.83,0,1.52-.2,2.08-.61.56-.4,1.18-1.45,1.86-3.14L19.24,1.07h.75l14.8,36.67c0,.19.38,1.08,1.14,2.67.76,1.59,1.92,2.38,3.47,2.38v.42h-9.7v-.42c.88,0,1.33-.35,1.33-1.04,0-.47-.22-1.22-.65-2.25-.08-.08-.14-.2-.2-.37-.04-.19-.07-.28-.08-.28l-5.94-14.74Zm-11.79-1.16h11.23l-5.61-14.15-5.62,14.15Z"/>
      <path class="cls-2" d="m46.39,2.11v-.42h10.8c3.16,0,5.39.13,6.71.39,1.31.26,2.57.77,3.78,1.51,1.2.74,2.23,1.81,3.07,3.21s1.27,2.99,1.27,4.78c0,3.51-1.73,6.29-5.19,8.32,2.99.51,5.24,1.74,6.77,3.71s2.28,4.35,2.28,7.15c0,2.61-.65,4.99-1.96,7.13-1.31,2.14-2.8,3.57-4.48,4.27-1.68.71-4.04,1.06-7.06,1.06h-16.04v-.42c1.28,0,2.1-.26,2.45-.77.36-.52.54-1.84.54-3.96V6.79c0-1.5-.04-2.53-.13-3.07-.08-.54-.36-.95-.83-1.21-.47-.26-1.13-.39-1.97-.39Zm7.72.45v18.24h5.05c3.42,0,5.69-.98,6.81-2.93,1.12-1.95,1.68-3.9,1.68-5.83,0-2.09-.43-3.83-1.3-5.23s-2.13-2.46-3.79-3.17c-1.66-.71-4.11-1.07-7.34-1.07h-1.1Zm3.24,19.11h-3.24v13.17c0,1.82.07,3.01.21,3.55s.46,1.12.96,1.72c.5.6,1.3,1.08,2.41,1.45,1.11.37,2.71.55,4.79.55,3.23,0,5.52-.75,6.85-2.24,1.33-1.49,2-3.71,2-6.64s-.59-5.53-1.78-7.44c-1.18-1.92-2.52-3.08-4.02-3.5-1.49-.41-4.22-.62-8.19-.62Z"/>
      <path class="cls-2" d="m107.18,1.07c5.83,0,10.59,1.77,14.29,5.31s5.55,7.96,5.55,13.26c0,6.82-2.14,12.56-6.43,17.22-4.29,4.66-9.97,6.99-17.06,6.99-5.75,0-10.46-1.88-14.12-5.64-3.67-3.76-5.5-8.27-5.5-13.53,0-3.55.88-7.2,2.65-10.94,1.77-3.74,4.43-6.79,7.98-9.15s7.76-3.54,12.63-3.54Zm-.17,40.59c2.86,0,5.68-.77,8.46-2.3,2.78-1.53,4.97-3.64,6.57-6.33,1.6-2.69,2.4-5.45,2.4-8.29,0-4.02-1.08-7.68-3.23-10.97-2.15-3.29-4.94-5.86-8.37-7.72-3.43-1.86-6.6-2.79-9.51-2.79-4.12,0-7.85,1.55-11.21,4.65s-5.03,6.95-5.03,11.56c0,5.88,2.05,11.05,6.15,15.5s8.69,6.68,13.79,6.68Z"/>
      <path class="cls-2" d="m152.12,43.86h-.54l-14.79-36.56c-1.05-2.58-1.92-4.08-2.59-4.52s-1.37-.66-2.09-.66v-.42h9.58v.42c-.85-.06-1.27.27-1.27.99,0,.28.06.58.17.9l12.89,31.96,12.78-31.95c.17-.43.25-.77.25-1.03,0-.63-.49-.92-1.45-.87v-.42h6.23v.42c-.43,0-.89.06-1.37.18-.48.12-.97.61-1.48,1.45-.51.85-.77,1.3-.79,1.35l-15.55,38.76Z"/>
      <path class="cls-2" d="m178.14,2.17v-.48h26.11v5.72h-.42c-.56-2.12-1.04-3.37-1.42-3.75-.39-.38-1.33-.56-2.83-.56h-13.7v18.63h12.71c1.26,0,2.06-.12,2.4-.35.34-.23.52-.58.54-1.03h.42v3.92h-.42c-.09-.54-.31-.91-.66-1.1-.35-.19-.99-.28-1.93-.28h-13.05v12.83c0,1.94.18,3.33.54,4.19.36.86.92,1.39,1.7,1.61.78.22,1.96.32,3.53.32h7.32c2.33,0,3.81-.08,4.46-.24s1.2-.48,1.65-.95c.45-.48.8-1.52,1.04-3.12h.42v5.69h-28.39v-.42c.96-.06,1.69-.24,2.19-.55.5-.31.75-1.11.75-2.41V6.31c0-1.52-.13-2.59-.4-3.21-.26-.62-1.11-.93-2.54-.93Z"/>
      <path class="cls-2" d="m270.64,3.77l1.55,4.4h-.41c-4.02-4-8.75-6-14.2-6s-10.22,1.68-13.71,5.05c-3.48,3.36-5.23,7.43-5.23,12.21,0,2.95.78,6.34,2.33,10.18,1.55,3.83,4,6.99,7.34,9.46,3.35,2.47,7.4,3.71,12.15,3.71,3.12,0,6.18-.5,9.18-1.51,3-1.01,5.23-2.35,6.7-4.05l.37.11-2.9,4.45c-4.7,1.01-7.75,1.62-9.15,1.8-1.4.19-3.28.28-5.62.28-8.7,0-14.93-2.02-18.68-6.05-3.75-4.03-5.62-8.86-5.62-14.48,0-3.8.96-7.45,2.89-10.95,1.93-3.5,4.7-6.27,8.33-8.29,3.63-2.02,7.77-3.03,12.43-3.03,2.33,0,4.35.21,6.05.63s3.12.86,4.24,1.31l1.86.71c.06.02.09.04.11.06Z"/>
      <path class="cls-2" d="m283.74,2.17v-.48h26.11v5.72h-.42c-.56-2.12-1.04-3.37-1.42-3.75-.39-.38-1.33-.56-2.83-.56h-13.7v18.63h12.71c1.26,0,2.06-.12,2.4-.35.34-.23.52-.58.54-1.03h.42v3.92h-.42c-.09-.54-.31-.91-.66-1.1-.35-.19-.99-.28-1.93-.28h-13.05v12.83c0,1.94.18,3.33.54,4.19.36.86.92,1.39,1.7,1.61.78.22,1.96.32,3.53.32h7.32c2.33,0,3.81-.08,4.46-.24s1.2-.48,1.65-.95c.45-.48.8-1.52,1.04-3.12h.42v5.69h-28.39v-.42c.96-.06,1.69-.24,2.19-.55.5-.31.75-1.11.75-2.41V6.31c0-1.52-.13-2.59-.4-3.21-.26-.62-1.11-.93-2.54-.93Z"/>
      <path class="cls-2" d="m353.42,1.69h8.03v.42c-1.22.04-2.07.3-2.54.78s-.7,1.49-.7,3.03v37.8l-33.12-35.27v30.71c0,.98.08,1.7.23,2.17s.37.79.65.96c.28.17.99.34,2.11.51v.42h-7.98v-.42c1.43,0,2.32-.25,2.66-.76.35-.51.52-1.72.52-3.63V10.31c0-2.46-.34-4.47-1.03-6.03-.69-1.56-2.27-2.28-4.75-2.17v-.42h7.81l31.12,33.14V5.52c0-1.58-.28-2.54-.85-2.89s-1.29-.52-2.17-.52v-.42Z"/>
      <path class="cls-2" d="m402.66.25l-1.97,5.02h-.42c.08-.3.11-.7.11-1.21,0-.43-.15-.71-.46-.83s-.8-.18-1.48-.18h-10.83v35.52c0,1.46.12,2.46.35,3,.24.54.55.87.96,1.01.4.14,1.06.21,1.96.21v.42h-11.25v-.42c1.41-.09,2.29-.37,2.65-.82.36-.45.54-1.39.54-2.82V3.04h-10.38c-1.05,0-1.73.06-2.05.18-.32.12-.48.43-.48.92,0,.24.07.62.23,1.13h-.42l-1.97-5.02h.42c.34.68.67,1.08,1,1.23.33.14,1.04.21,2.12.21h27.55c1.09,0,1.87-.07,2.35-.21.48-.14.83-.55,1.06-1.23h.42Z"/>
      <path class="cls-2" d="m409.19,2.11v-.42h11.78c2.99,0,5.15.07,6.48.2,1.33.13,2.7.57,4.1,1.31,1.4.74,2.46,1.75,3.17,3.02s1.07,2.83,1.07,4.67c0,2.11-.63,4.12-1.9,6.02-1.27,1.91-3.06,3.52-5.37,4.84l2.93,4.51c.64,1.13,2.33,3.6,5.09,7.41,2.75,3.81,4.88,6.14,6.39,6.97,1.5.84,2.96,1.25,4.37,1.25s2.99-.54,4.79-1.61l.17.56c-2.25,1.84-5.18,2.76-8.79,2.76-2.4,0-4.47-.71-6.2-2.13s-4.73-5.33-9.02-11.71c-.04-.04-.06-.07-.06-.11l-4.17-6.42-3.7.11h-3.36v15.88c0,1.28.17,2.19.5,2.75s1.15.83,2.43.83v.42h-10.71v-.42c1.33-.06,2.17-.34,2.5-.84s.49-1.54.49-3.1V5.86c0-1.07-.14-1.96-.42-2.66-.28-.7-1.14-1.07-2.57-1.08Zm7.78.68v19.48h4.35c3.43,0,5.97-.81,7.63-2.42,1.66-1.62,2.49-3.74,2.49-6.37s-.81-4.98-2.44-7.26c-1.63-2.28-4.5-3.43-8.6-3.43h-3.42Z"/>
      <path class="cls-2" d="m481.18,24.1h-12.19l-6.29,15.67c-.43,1.13-.65,1.82-.65,2.09,0,.62.46.93,1.38.93v.42h-6.17v-.42c.83,0,1.52-.2,2.08-.61.56-.4,1.18-1.45,1.86-3.14l15.05-37.97h.75l14.8,36.67c0,.19.38,1.08,1.14,2.67.76,1.59,1.92,2.38,3.47,2.38v.42h-9.7v-.42c.88,0,1.33-.35,1.33-1.04,0-.47-.22-1.22-.65-2.25-.08-.08-.14-.2-.2-.37-.04-.19-.07-.28-.08-.28l-5.94-14.74Zm-11.79-1.16h11.23l-5.61-14.15-5.62,14.15Z"/>
      <path class="cls-2" d="m501.74,43.21v-.42c1.3,0,2.14-.24,2.52-.73.39-.49.58-1.32.58-2.51V5.58c0-1.2-.15-2.07-.45-2.61s-1.2-.82-2.71-.86v-.42h11.14v.42c-1.03,0-1.76.13-2.17.39-.41.26-.69.57-.82.93-.13.36-.2,1.17-.2,2.42v29.15c0,2.5.6,4.26,1.8,5.29,1.2,1.02,3.26,1.54,6.17,1.54h5.07c2.44,0,4.23-.6,5.36-1.8,1.14-1.2,1.77-3.47,1.9-6.79h.42v9.98h-28.61Z"/>
      <path class="cls-2" d="m619.86,43.21h-7.87v-6.4c-4,4.45-8.77,6.68-14.31,6.68-4.11,0-7.37-1.16-9.79-3.47-2.41-2.31-3.62-5.51-3.62-9.58V5.58c0-1.5-.18-2.46-.54-2.86-.36-.4-1.19-.61-2.51-.61v-.42h11.02v.42c-1.17,0-1.99.18-2.47.55-.48.37-.72,1.24-.72,2.61v22.81c0,4.77,1.12,8.18,3.35,10.22s4.78,3.06,7.63,3.06c4.49,0,8.46-2.02,11.94-6.06V7.18c0-2.46-.22-3.92-.65-4.38-.43-.46-1.11-.69-2.03-.69h-.39v-.42h10.94v.42c-1.35.08-2.2.3-2.55.68-.35.38-.52,1.09-.52,2.14v33.81c0,1.33.07,2.21.2,2.62.13.41.4.76.8,1.03.4.27,1.09.41,2.07.41v.42Z"/>
      <path class="cls-2" d="m628.87,2.11v-.42h11.84c4.21,0,7.27.47,9.18,1.41,1.91.94,3.3,2.11,4.17,3.51.87,1.4,1.31,3.25,1.31,5.55,0,3.52-1.21,6.16-3.64,7.93-2.42,1.77-5.71,2.62-9.87,2.54v-.42c2.63,0,4.77-.81,6.41-2.42,1.64-1.62,2.47-3.74,2.47-6.37,0-2.05-.4-3.87-1.2-5.46-.8-1.59-1.92-2.79-3.37-3.62-1.45-.83-3.66-1.24-6.62-1.24h-2.96v35.52c0,2.01.23,3.21.68,3.59.45.38,1.31.58,2.57.58v.42h-10.97v-.42c1.95,0,2.93-.89,2.93-2.68V5.74c0-1.46-.19-2.44-.56-2.92-.38-.48-1.17-.72-2.37-.72Z"/>
      <path class="cls-2" d="m663.84,2.11v-.42h11.84c4.21,0,7.27.47,9.18,1.41,1.91.94,3.3,2.11,4.17,3.51.87,1.4,1.31,3.25,1.31,5.55,0,3.52-1.21,6.16-3.64,7.93-2.42,1.77-5.71,2.62-9.87,2.54v-.42c2.63,0,4.77-.81,6.41-2.42,1.64-1.62,2.47-3.74,2.47-6.37,0-2.05-.4-3.87-1.2-5.46-.8-1.59-1.92-2.79-3.37-3.62-1.45-.83-3.66-1.24-6.62-1.24h-2.96v35.52c0,2.01.23,3.21.68,3.59.45.38,1.31.58,2.57.58v.42h-10.97v-.42c1.95,0,2.93-.89,2.93-2.68V5.74c0-1.46-.19-2.44-.56-2.92-.38-.48-1.17-.72-2.37-.72Z"/>
      <path class="cls-2" d="m698.76,2.17v-.48h26.11v5.72h-.42c-.56-2.12-1.04-3.37-1.42-3.75-.39-.38-1.33-.56-2.83-.56h-13.7v18.63h12.71c1.26,0,2.06-.12,2.4-.35.34-.23.52-.58.54-1.03h.42v3.92h-.42c-.09-.54-.31-.91-.66-1.1-.35-.19-.99-.28-1.93-.28h-13.05v12.83c0,1.94.18,3.33.54,4.19.36.86.92,1.39,1.7,1.61.78.22,1.96.32,3.53.32h7.32c2.33,0,3.81-.08,4.46-.24s1.2-.48,1.65-.95c.45-.48.8-1.52,1.04-3.12h.42v5.69h-28.39v-.42c.96-.06,1.69-.24,2.19-.55.5-.31.75-1.11.75-2.41V6.31c0-1.52-.13-2.59-.4-3.21-.26-.62-1.11-.93-2.54-.93Z"/>
      <path class="cls-2" d="m734.38,2.11v-.42h11.78c2.99,0,5.15.07,6.48.2,1.33.13,2.7.57,4.1,1.31,1.4.74,2.46,1.75,3.17,3.02s1.07,2.83,1.07,4.67c0,2.11-.63,4.12-1.9,6.02-1.27,1.91-3.06,3.52-5.37,4.84l2.93,4.51c.64,1.13,2.33,3.6,5.09,7.41,2.75,3.81,4.88,6.14,6.39,6.97,1.5.84,2.96,1.25,4.37,1.25s2.99-.54,4.79-1.61l.17.56c-2.25,1.84-5.18,2.76-8.79,2.76-2.4,0-4.47-.71-6.2-2.13s-4.73-5.33-9.02-11.71c-.04-.04-.06-.07-.06-.11l-4.17-6.42-3.7.11h-3.36v15.88c0,1.28.17,2.19.5,2.75s1.15.83,2.43.83v.42h-10.71v-.42c1.33-.06,2.17-.34,2.5-.84s.49-1.54.49-3.1V5.86c0-1.07-.14-1.96-.42-2.66-.28-.7-1.14-1.07-2.57-1.08Zm7.78.68v19.48h4.35c3.43,0,5.97-.81,7.63-2.42,1.66-1.62,2.49-3.74,2.49-6.37s-.81-4.98-2.44-7.26c-1.63-2.28-4.5-3.43-8.6-3.43h-3.42Z"/>
      <path class="cls-2" d="m804.02,43.21v-.42c1.3,0,2.14-.24,2.52-.73.39-.49.58-1.32.58-2.51V5.58c0-1.2-.15-2.07-.45-2.61s-1.2-.82-2.71-.86v-.42h11.14v.42c-1.03,0-1.76.13-2.17.39-.41.26-.69.57-.82.93-.13.36-.2,1.17-.2,2.42v29.15c0,2.5.6,4.26,1.8,5.29,1.2,1.02,3.26,1.54,6.17,1.54h5.07c2.44,0,4.23-.6,5.36-1.8,1.14-1.2,1.77-3.47,1.9-6.79h.42v9.98h-28.61Z"/>
      <path class="cls-2" d="m851.99,1.69v.42c-.55-.06-1.15.03-1.82.25-.67.23-1.06.55-1.18.99s-.18,1.46-.18,3.07v31.86c0,1.73.07,2.78.21,3.17.14.38.41.7.82.96s1.12.38,2.16.38v.42h-11.08v-.42c1.39,0,2.25-.27,2.59-.8.34-.54.51-1.75.51-3.65V6.79c0-1.97-.19-3.26-.56-3.87-.38-.61-1.22-.88-2.54-.8v-.42h11.08Z"/>
      <path class="cls-2" d="m878.54,43.86h-.54l-14.79-36.56c-1.05-2.58-1.92-4.08-2.59-4.52s-1.37-.66-2.09-.66v-.42h9.58v.42c-.85-.06-1.27.27-1.27.99,0,.28.06.58.17.9l12.89,31.96,12.78-31.95c.17-.43.25-.77.25-1.03,0-.63-.49-.92-1.45-.87v-.42h6.23v.42c-.43,0-.89.06-1.37.18-.48.12-.97.61-1.48,1.45-.51.85-.77,1.3-.79,1.35l-15.55,38.76Z"/>
      <path class="cls-2" d="m915.36,1.69v.42c-.55-.06-1.15.03-1.82.25-.67.23-1.06.55-1.18.99s-.18,1.46-.18,3.07v31.86c0,1.73.07,2.78.21,3.17.14.38.41.7.82.96s1.12.38,2.16.38v.42h-11.08v-.42c1.39,0,2.25-.27,2.59-.8.34-.54.51-1.75.51-3.65V6.79c0-1.97-.19-3.26-.56-3.87-.38-.61-1.22-.88-2.54-.8v-.42h11.08Z"/>
      <path class="cls-2" d="m957.95,1.69h8.03v.42c-1.22.04-2.07.3-2.54.78s-.7,1.49-.7,3.03v37.8l-33.12-35.27v30.71c0,.98.08,1.7.23,2.17s.37.79.65.96c.28.17.99.34,2.11.51v.42h-7.98v-.42c1.43,0,2.32-.25,2.66-.76.35-.51.52-1.72.52-3.63V10.31c0-2.46-.34-4.47-1.03-6.03-.69-1.56-2.27-2.28-4.75-2.17v-.42h7.81l31.12,33.14V5.52c0-1.58-.28-2.54-.85-2.89s-1.29-.52-2.17-.52v-.42Z"/>
      <path class="cls-2" d="m1015.16,42.79v.42h-16.75c-3.21,0-6.03-.35-8.44-1.04s-4.88-2.02-7.39-3.96-4.54-4.36-6.09-7.26c-1.55-2.89-2.33-5.85-2.33-8.88,0-3.31.97-6.61,2.92-9.89s4.71-5.96,8.3-8.02c3.59-2.06,7.66-3.09,12.21-3.09,4.08,0,8.39.9,12.94,2.71l1.72,4.79h-.41c-1.45-1.84-3.42-3.37-5.93-4.58-2.51-1.21-5.3-1.82-8.38-1.82-5.35,0-9.74,2.02-13.16,6.05-3.42,4.03-5.13,9.04-5.13,15.01,0,2.48.28,4.69.85,6.64s1.62,3.86,3.17,5.75c1.55,1.89,3.21,3.28,4.99,4.17,1.78.89,3.76,1.51,5.96,1.86,2.2.35,3.95.5,5.24.46l2.23-.06c2.52-.09,4.09-.33,4.72-.7.63-.38.94-1.33.94-2.88v-6.29c0-1.22-.25-2.04-.76-2.47-.51-.42-1.23-.61-2.17-.55v-.42h10.74v.42c-1.2,0-2.01.23-2.41.7s-.61,1.37-.61,2.7v6.53c0,1.31.17,2.26.52,2.83.35.57.98.86,1.9.86h.59Z"/>
    </g>
  </g>
</svg>