<?xml version="1.0" encoding="UTF-8"?>
<svg id="_圖層_2" data-name="圖層 2" xmlns="http://www.w3.org/2000/svg" xmlns:xlink="http://www.w3.org/1999/xlink" viewBox="0 0 782.87 43.61">
  <defs>
    <style>
      .cls-1 {
        fill: #fff6a2;
      }

      .cls-2 {
        filter: url(#drop-shadow-1);
      }
    </style>
    <filter id="drop-shadow-1" filterUnits="userSpaceOnUse">
      <feOffset dx="7" dy="7"/>
      <feGaussianBlur result="blur" stdDeviation="12"/>
      <feFlood flood-color="#000" flood-opacity=".75"/>
      <feComposite in2="blur" operator="in"/>
      <feComposite in="SourceGraphic"/>
    </filter>
  </defs>
  <g id="_圖層_3" data-name="圖層 3">
    <g class="cls-2">
      <path class="cls-1" d="m35.92,3.52l1.55,4.4h-.41c-4.02-4-8.75-6-14.2-6s-10.22,1.68-13.71,5.05c-3.48,3.36-5.23,7.43-5.23,12.21,0,2.95.78,6.34,2.33,10.18,1.55,3.83,4,6.99,7.34,9.46,3.35,2.47,7.4,3.71,12.15,3.71,3.12,0,6.18-.5,9.18-1.51,3-1.01,5.23-2.35,6.7-4.05l.37.11-2.9,4.45c-4.7,1.01-7.75,1.62-9.15,1.8-1.4.19-3.28.28-5.62.28-8.7,0-14.93-2.02-18.68-6.05C1.88,33.53,0,28.71,0,23.09c0-3.8.96-7.45,2.89-10.95,1.93-3.5,4.7-6.27,8.33-8.29,3.63-2.02,7.77-3.03,12.43-3.03,2.33,0,4.35.21,6.05.63s3.12.86,4.24,1.31l1.86.71c.06.02.09.04.11.06Z"/>
      <path class="cls-1" d="m49.01,1.92v-.48h26.11v5.72h-.42c-.56-2.12-1.04-3.37-1.42-3.75-.39-.38-1.33-.56-2.83-.56h-13.7v18.63h12.71c1.26,0,2.06-.12,2.4-.35.34-.23.52-.58.54-1.03h.42v3.92h-.42c-.09-.54-.31-.91-.66-1.1-.35-.19-.99-.28-1.93-.28h-13.05v12.83c0,1.94.18,3.33.54,4.19.36.86.92,1.39,1.7,1.61.78.22,1.96.32,3.53.32h7.32c2.33,0,3.81-.08,4.46-.24s1.2-.48,1.65-.95c.45-.48.8-1.52,1.04-3.12h.42v5.69h-28.39v-.42c.96-.06,1.69-.24,2.19-.55.5-.31.75-1.11.75-2.41V6.06c0-1.52-.13-2.59-.4-3.21-.26-.62-1.11-.93-2.54-.93Z"/>
      <path class="cls-1" d="m118.69,1.44h8.03v.42c-1.22.04-2.07.3-2.54.78s-.7,1.49-.7,3.03v37.8L90.36,8.2v30.71c0,.98.08,1.7.23,2.17s.37.79.65.96c.28.17.99.34,2.11.51v.42h-7.98v-.42c1.43,0,2.32-.25,2.66-.76.35-.51.52-1.72.52-3.63V10.06c0-2.46-.34-4.47-1.03-6.03-.69-1.56-2.27-2.28-4.75-2.17v-.42h7.81l31.12,33.14V5.27c0-1.58-.28-2.54-.85-2.89s-1.29-.52-2.17-.52v-.42Z"/>
      <path class="cls-1" d="m167.93,0l-1.97,5.02h-.42c.08-.3.11-.7.11-1.21,0-.43-.15-.71-.46-.83s-.8-.18-1.48-.18h-10.83v35.52c0,1.46.12,2.46.35,3,.24.54.55.87.96,1.01.4.14,1.06.21,1.96.21v.42h-11.25v-.42c1.41-.09,2.29-.37,2.65-.82.36-.45.54-1.39.54-2.82V2.79h-10.38c-1.05,0-1.73.06-2.05.18-.32.12-.48.43-.48.92,0,.24.07.62.23,1.13h-.42l-1.97-5.02h.42c.34.68.67,1.08,1,1.23.33.14,1.04.21,2.12.21h27.55c1.09,0,1.87-.07,2.35-.21.48-.14.83-.55,1.06-1.23h.42Z"/>
      <path class="cls-1" d="m174.46,1.92v-.48h26.11v5.72h-.42c-.56-2.12-1.04-3.37-1.42-3.75-.39-.38-1.33-.56-2.83-.56h-13.7v18.63h12.71c1.26,0,2.06-.12,2.4-.35.34-.23.52-.58.54-1.03h.42v3.92h-.42c-.09-.54-.31-.91-.66-1.1-.35-.19-.99-.28-1.93-.28h-13.05v12.83c0,1.94.18,3.33.54,4.19.36.86.92,1.39,1.7,1.61.78.22,1.96.32,3.53.32h7.32c2.33,0,3.81-.08,4.46-.24s1.2-.48,1.65-.95c.45-.48.8-1.52,1.04-3.12h.42v5.69h-28.39v-.42c.96-.06,1.69-.24,2.19-.55.5-.31.75-1.11.75-2.41V6.06c0-1.52-.13-2.59-.4-3.21-.26-.62-1.11-.93-2.54-.93Z"/>
      <path class="cls-1" d="m210.08,1.86v-.42h11.78c2.99,0,5.15.07,6.48.2,1.33.13,2.7.57,4.1,1.31,1.4.74,2.46,1.75,3.17,3.02s1.07,2.83,1.07,4.67c0,2.11-.63,4.12-1.9,6.02-1.27,1.91-3.06,3.52-5.37,4.84l2.93,4.51c.64,1.13,2.33,3.6,5.09,7.41,2.75,3.81,4.88,6.14,6.39,6.97,1.5.84,2.96,1.25,4.37,1.25s2.99-.54,4.79-1.61l.17.56c-2.25,1.84-5.18,2.76-8.79,2.76-2.4,0-4.47-.71-6.2-2.13s-4.73-5.33-9.02-11.71c-.04-.04-.06-.07-.06-.11l-4.17-6.42-3.7.11h-3.36v15.88c0,1.28.17,2.19.5,2.75s1.15.83,2.43.83v.42h-10.71v-.42c1.33-.06,2.17-.34,2.5-.84s.49-1.54.49-3.1V5.61c0-1.07-.14-1.96-.42-2.66-.28-.7-1.14-1.07-2.57-1.08Zm7.78.68v19.48h4.35c3.43,0,5.97-.81,7.63-2.42,1.66-1.62,2.49-3.74,2.49-6.37s-.81-4.98-2.44-7.26c-1.63-2.28-4.5-3.43-8.6-3.43h-3.42Z"/>
      <path class="cls-1" d="m304.19.82c5.83,0,10.59,1.77,14.29,5.31s5.55,7.96,5.55,13.26c0,6.82-2.14,12.56-6.43,17.22-4.29,4.66-9.97,6.99-17.06,6.99-5.75,0-10.46-1.88-14.12-5.64-3.67-3.76-5.5-8.27-5.5-13.53,0-3.55.88-7.2,2.65-10.94,1.77-3.74,4.43-6.79,7.98-9.15s7.76-3.54,12.63-3.54Zm-.17,40.59c2.86,0,5.68-.77,8.46-2.3,2.78-1.53,4.97-3.64,6.57-6.33,1.6-2.69,2.4-5.45,2.4-8.29,0-4.02-1.08-7.68-3.23-10.97-2.15-3.29-4.94-5.86-8.37-7.72-3.43-1.86-6.6-2.79-9.51-2.79-4.12,0-7.85,1.55-11.21,4.65s-5.03,6.95-5.03,11.56c0,5.88,2.05,11.05,6.15,15.5s8.69,6.68,13.79,6.68Z"/>
      <path class="cls-1" d="m332.36,1.86v-.42h26.27v4.88h-.42v-.2s-.06-.09-.06-.17c-.38-1.43-.9-2.3-1.58-2.62-.68-.32-1.71-.48-3.1-.48h-13.39v18.3h12.47c1.07,0,1.8-.08,2.19-.25s.62-.54.68-1.13h.42v3.97h-.42c0-.96-.62-1.44-1.86-1.44h-13.48v16.55c0,1.56.24,2.56.72,3.01.48.45,1.3.68,2.47.68v.42h-10.91v-.42c1.28,0,2.09-.24,2.42-.73.34-.49.51-1.17.51-2.06V5.61c0-1.39-.2-2.36-.59-2.92-.39-.55-1.17-.83-2.34-.83Z"/>
      <path class="cls-1" d="m419.54,0l-1.97,5.02h-.42c.08-.3.11-.7.11-1.21,0-.43-.15-.71-.46-.83s-.8-.18-1.48-.18h-10.83v35.52c0,1.46.12,2.46.35,3,.24.54.55.87.96,1.01.4.14,1.06.21,1.96.21v.42h-11.25v-.42c1.41-.09,2.29-.37,2.65-.82.36-.45.54-1.39.54-2.82V2.79h-10.38c-1.05,0-1.73.06-2.05.18-.32.12-.48.43-.48.92,0,.24.07.62.23,1.13h-.42l-1.97-5.02h.42c.34.68.67,1.08,1,1.23.33.14,1.04.21,2.12.21h27.55c1.09,0,1.87-.07,2.35-.21.48-.14.83-.55,1.06-1.23h.42Z"/>
      <path class="cls-1" d="m456.54,22.24h-22.81v15.96c0,1.5.07,2.46.21,2.87.14.41.4.76.79,1.04.38.28,1.06.42,2.02.42v.42h-10.74v-.42c1.95.13,2.93-.82,2.93-2.85V6.31c0-1.9-.16-3.1-.46-3.61-.31-.51-1.13-.79-2.47-.85v-.42h10.74v.42c-1.18.08-1.98.3-2.4.68-.41.38-.62,1.15-.62,2.31v16.24h22.81V6.23c0-1.69-.15-2.84-.44-3.45-.29-.61-1.1-.92-2.44-.92v-.42h10.6v.42c-.84,0-1.46.1-1.87.3-.41.2-.69.5-.84.92-.15.41-.22,1.46-.22,3.16v31.86c0,1.63.07,2.65.22,3.06.15.4.41.74.78,1,.37.26,1.01.39,1.93.39v.42h-10.6v-.42c1.15,0,1.91-.23,2.3-.7.39-.47.58-1.74.58-3.8v-15.79Z"/>
      <path class="cls-1" d="m473.13,1.92v-.48h26.11v5.72h-.42c-.56-2.12-1.04-3.37-1.42-3.75-.39-.38-1.33-.56-2.83-.56h-13.7v18.63h12.71c1.26,0,2.06-.12,2.4-.35.34-.23.52-.58.54-1.03h.42v3.92h-.42c-.09-.54-.31-.91-.66-1.1-.35-.19-.99-.28-1.93-.28h-13.05v12.83c0,1.94.18,3.33.54,4.19.36.86.92,1.39,1.7,1.61.78.22,1.96.32,3.53.32h7.32c2.33,0,3.81-.08,4.46-.24s1.2-.48,1.65-.95c.45-.48.8-1.52,1.04-3.12h.42v5.69h-28.39v-.42c.96-.06,1.69-.24,2.19-.55.5-.31.75-1.11.75-2.41V6.06c0-1.52-.13-2.59-.4-3.21-.26-.62-1.11-.93-2.54-.93Z"/>
      <path class="cls-1" d="m565.63,3.52l1.55,4.4h-.41c-4.02-4-8.75-6-14.2-6s-10.22,1.68-13.71,5.05c-3.48,3.36-5.23,7.43-5.23,12.21,0,2.95.78,6.34,2.33,10.18,1.55,3.83,4,6.99,7.34,9.46,3.35,2.47,7.4,3.71,12.15,3.71,3.12,0,6.18-.5,9.18-1.51,3-1.01,5.23-2.35,6.7-4.05l.37.11-2.9,4.45c-4.7,1.01-7.75,1.62-9.15,1.8-1.4.19-3.28.28-5.62.28-8.7,0-14.93-2.02-18.68-6.05-3.75-4.03-5.62-8.86-5.62-14.48,0-3.8.96-7.45,2.89-10.95,1.93-3.5,4.7-6.27,8.33-8.29,3.63-2.02,7.77-3.03,12.43-3.03,2.33,0,4.35.21,6.05.63s3.12.86,4.24,1.31l1.86.71c.06.02.09.04.11.06Z"/>
      <path class="cls-1" d="m578.73,1.92v-.48h26.11v5.72h-.42c-.56-2.12-1.04-3.37-1.42-3.75-.39-.38-1.33-.56-2.83-.56h-13.7v18.63h12.71c1.26,0,2.06-.12,2.4-.35.34-.23.52-.58.54-1.03h.42v3.92h-.42c-.09-.54-.31-.91-.66-1.1-.35-.19-.99-.28-1.93-.28h-13.05v12.83c0,1.94.18,3.33.54,4.19.36.86.92,1.39,1.7,1.61.78.22,1.96.32,3.53.32h7.32c2.33,0,3.81-.08,4.46-.24s1.2-.48,1.65-.95c.45-.48.8-1.52,1.04-3.12h.42v5.69h-28.39v-.42c.96-.06,1.69-.24,2.19-.55.5-.31.75-1.11.75-2.41V6.06c0-1.52-.13-2.59-.4-3.21-.26-.62-1.11-.93-2.54-.93Z"/>
      <path class="cls-1" d="m648.41,1.44h8.03v.42c-1.22.04-2.07.3-2.54.78s-.7,1.49-.7,3.03v37.8l-33.12-35.27v30.71c0,.98.08,1.7.23,2.17s.37.79.65.96c.28.17.99.34,2.11.51v.42h-7.98v-.42c1.43,0,2.32-.25,2.66-.76.35-.51.52-1.72.52-3.63V10.06c0-2.46-.34-4.47-1.03-6.03-.69-1.56-2.27-2.28-4.75-2.17v-.42h7.81l31.12,33.14V5.27c0-1.58-.28-2.54-.85-2.89s-1.29-.52-2.17-.52v-.42Z"/>
      <path class="cls-1" d="m697.64,0l-1.97,5.02h-.42c.08-.3.11-.7.11-1.21,0-.43-.15-.71-.46-.83s-.8-.18-1.48-.18h-10.83v35.52c0,1.46.12,2.46.35,3,.24.54.55.87.96,1.01.4.14,1.06.21,1.96.21v.42h-11.25v-.42c1.41-.09,2.29-.37,2.65-.82.36-.45.54-1.39.54-2.82V2.79h-10.38c-1.05,0-1.73.06-2.05.18-.32.12-.48.43-.48.92,0,.24.07.62.23,1.13h-.42l-1.97-5.02h.42c.34.68.67,1.08,1,1.23.33.14,1.04.21,2.12.21h27.55c1.09,0,1.87-.07,2.35-.21.48-.14.83-.55,1.06-1.23h.42Z"/>
      <path class="cls-1" d="m704.17,1.92v-.48h26.11v5.72h-.42c-.56-2.12-1.04-3.37-1.42-3.75-.39-.38-1.33-.56-2.83-.56h-13.7v18.63h12.71c1.26,0,2.06-.12,2.4-.35.34-.23.52-.58.54-1.03h.42v3.92h-.42c-.09-.54-.31-.91-.66-1.1-.35-.19-.99-.28-1.93-.28h-13.05v12.83c0,1.94.18,3.33.54,4.19.36.86.92,1.39,1.7,1.61.78.22,1.96.32,3.53.32h7.32c2.33,0,3.81-.08,4.46-.24s1.2-.48,1.65-.95c.45-.48.8-1.52,1.04-3.12h.42v5.69h-28.39v-.42c.96-.06,1.69-.24,2.19-.55.5-.31.75-1.11.75-2.41V6.06c0-1.52-.13-2.59-.4-3.21-.26-.62-1.11-.93-2.54-.93Z"/>
      <path class="cls-1" d="m739.79,1.86v-.42h11.78c2.99,0,5.15.07,6.48.2,1.33.13,2.7.57,4.1,1.31,1.4.74,2.46,1.75,3.17,3.02s1.07,2.83,1.07,4.67c0,2.11-.63,4.12-1.9,6.02-1.27,1.91-3.06,3.52-5.37,4.84l2.93,4.51c.64,1.13,2.33,3.6,5.09,7.41,2.75,3.81,4.88,6.14,6.39,6.97,1.5.84,2.96,1.25,4.37,1.25s2.99-.54,4.79-1.61l.17.56c-2.25,1.84-5.18,2.76-8.79,2.76-2.4,0-4.47-.71-6.2-2.13s-4.73-5.33-9.02-11.71c-.04-.04-.06-.07-.06-.11l-4.17-6.42-3.7.11h-3.36v15.88c0,1.28.17,2.19.5,2.75s1.15.83,2.43.83v.42h-10.71v-.42c1.33-.06,2.17-.34,2.5-.84s.49-1.54.49-3.1V5.61c0-1.07-.14-1.96-.42-2.66-.28-.7-1.14-1.07-2.57-1.08Zm7.78.68v19.48h4.35c3.43,0,5.97-.81,7.63-2.42,1.66-1.62,2.49-3.74,2.49-6.37s-.81-4.98-2.44-7.26c-1.63-2.28-4.5-3.43-8.6-3.43h-3.42Z"/>
    </g>
  </g>
</svg>