<?xml version="1.0" encoding="UTF-8"?>
<svg id="_圖層_2" data-name="圖層 2" xmlns="http://www.w3.org/2000/svg" xmlns:xlink="http://www.w3.org/1999/xlink" viewBox="0 0 526.22 68.56">
  <defs>
    <style>
      .cls-1 {
        fill: #fff;
      }

      .cls-2 {
        filter: url(#drop-shadow-1);
      }
    </style>
    <filter id="drop-shadow-1" filterUnits="userSpaceOnUse">
      <feOffset dx="6.27" dy="6.27"/>
      <feGaussianBlur result="blur" stdDeviation="5.23"/>
      <feFlood flood-color="#050001" flood-opacity=".6"/>
      <feComposite in2="blur" operator="in"/>
      <feComposite in="SourceGraphic"/>
    </filter>
  </defs>
  <g id="_圖層_4" data-name="圖層 4">
    <g class="cls-2">
      <path class="cls-1" d="m300.72,5.31c-2.89-.16-5.44-.84-6.87-3.71v27.52l-13.1,3.22.65,1.63,12.45-3.08v20.76c0,2.67.15,4.77.47,6.3.31,1.53.79,2.7,1.43,3.51.65.81,1.46,1.32,2.43,1.54.98.22,2.13.32,3.47.32h13.46c1.72,0,3.22-.01,4.51-.04,1.29-.02,2.39-.23,3.29-.61.91-.38,1.65-1.05,2.22-2.01.57-.95.98-2.36,1.22-4.22-.57-.14-1.04-.59-1.4-1.36-.36-.76-.66-1.71-.89-2.83-.24-1.12-.42-2.39-.54-3.79-.12-1.41-.2-2.82-.25-4.23-.05-1.41-.07-2.78-.07-4.12v-3.51c-.67,3.2-1.26,6.03-1.79,8.48-.53,2.46-1.07,4.51-1.65,6.15-.57,1.65-1.22,2.9-1.93,3.76-.72.86-1.62,1.29-2.72,1.29h-9.16c-1.05,0-1.91-.05-2.58-.14-.67-.1-1.21-.36-1.61-.79-.41-.43-.68-1.09-.82-1.97-.14-.88-.22-2.11-.22-3.69v-20.47l27.27-6.73.5-1.91-27.77,6.87V5.31Z"/>
      <g>
        <path class="cls-1" d="m388.81,7.84h-7.44c-.72-.67-1.58-1.22-2.58-1.65-1-.43-2.03-.69-3.08-.79v21.4c0,2.67-.01,5.46-.04,8.37-.02,2.91-.2,5.44-.58,8.54h-4.94l-.02-29.3h4.44l.72-1.64h-5.15v-3.01h0s0-5.11,0-5.11c-2.44-.14-4.59-.69-5.8-3.07v7.44s0,0,0,0v3.74h-7.01V4.69c-2.41-.14-4.53-.7-5.73-3.09v6.77s0,0,0,0v4.41h-5.01l.57,1.64h4.44v29.3h-5.37l.5,1.7h27.84l.5-.93c-.43,3.63-1.16,7.31-2.18,11.06-1.03,3.75-2.61,7.48-4.76,11.2,2.29-1.58,4.21-3.29,5.76-5.15s2.82-3.9,3.79-6.12c.98-2.22,1.73-4.66,2.26-7.34.52-2.67.88-5.63,1.07-8.88h7.59v15.17c0,1.1-.17,1.92-.5,2.47-.33.55-.93.8-1.79.75l-6.59-.36c1.05.52,2.02.98,2.9,1.36.88.38,1.63.84,2.26,1.36.62.53,1.12,1.23,1.5,2.11.38.88.64,2.09.79,3.61,2.53-.28,4.43-1.12,5.69-2.5,1.26-1.39,1.9-3.55,1.9-6.51l-.43-50.89-5.51,2Zm-24.48,35.88h-7.01v-8.97h7.01v8.97Zm0-10.61h-7.01v-8.74h7.01v8.74Zm0-10.38h-7.01v-8.31h7.01v8.31Zm24.26,14.86h-7.51c.09-1.96.15-3.57.18-5.74.02-2.17.04-4.47.04-6.91v-.86h7.3v13.51Zm0-15.15h-7.3l.07-12.93h7.23v12.93Z"/>
        <path class="cls-1" d="m351.63,52.58c-.55,1.72-1.16,3.42-1.82,5.12-.67,1.7-1.37,3.29-2.11,4.8-.74,1.5-1.44,2.83-2.11,3.97,1.05-.62,2.17-1.42,3.36-2.4,1.19-.98,2.36-2.04,3.51-3.18,1.15-1.15,2.21-2.32,3.19-3.51.98-1.19,1.75-2.32,2.33-3.36.52,0,1.02-.11,1.5-.32.48-.21.88-.65,1.22-1.32l-7.8-4.72c-.29,1.58-.71,3.22-1.25,4.94Z"/>
        <path class="cls-1" d="m370.17,58.62c.31-.79.44-1.68.39-2.69-.1-1.76-.99-3.33-2.68-4.69-1.69-1.36-3.88-2.49-6.55-3.4.43,1.05.86,2.23,1.29,3.54.43,1.31.83,2.66,1.22,4.04.38,1.39.73,2.75,1.04,4.08.31,1.34.59,2.55.82,3.65.48-.29,1.01-.63,1.61-1.04.6-.41,1.15-.9,1.65-1.47.5-.57.91-1.25,1.22-2.04Z"/>
      </g>
      <path class="cls-1" d="m446.98,56.37c-2.41.19-4.8.24-7.16.14-2.36-.09-4.62-.43-6.77-1-2.15-.57-4.14-1.42-5.98-2.54-1.84-1.12-3.4-2.61-4.69-4.47,3.48-1.48,6.73-3.21,9.73-5.19,3.01-1.98,5.77-4.09,8.3-6.34,2.53-2.24,4.82-4.6,6.87-7.09,2.05-2.48,3.86-4.96,5.44-7.44.81.38,1.49.37,2.04-.04.55-.41.97-.89,1.25-1.47l-7.95-8.38c-.72,2.01-1.6,3.54-2.61,5.41h-9.78V5.31c-2.89-.16-5.44-.84-6.87-3.71v16.36s-15.38-.01-15.38-.01l.7,1.63h30.71c-1.62,3.01-3.46,5.87-5.51,8.59-2.05,2.72-4.15,5.24-6.3,7.55-2.15,2.32-4.23,4.43-6.26,6.34-2.03,1.91-3.83,3.53-5.4,4.87-.14-.24-.29-.49-.43-.75-.14-.26-.26-.54-.36-.82l-9.95,10.66,5.44,9.45c.43-.38.74-.8.93-1.25.19-.45.19-1.28,0-2.47.67-1.29,1.35-3.03,2.04-5.23.69-2.19,1.28-4.63,1.75-7.3.76,2.82,1.66,5.15,2.68,7.01,1.02,1.86,2.24,3.36,3.65,4.51,1.41,1.14,3.04,1.97,4.9,2.47,1.86.5,4.03.82,6.51.96,2.48.15,5.3.15,8.45,0,3.15-.14,6.7-.28,10.66-.43.24-1.96.62-3.64,1.15-5.05.52-1.41,1.17-2.9,1.93-4.47-2.1.43-4.32.85-6.66,1.25-2.34.41-4.71.7-7.12.89Z"/>
      <path class="cls-1" d="m503.1,61.1v-31.93h18.25l.64-1.7h-18.9V5.5c-3.08-.17-5.78-.89-7.3-3.95v59.55s-19.54,0-19.54,0l.57,1.64h48.74l.65-1.64h-23.12Z"/>
      <g>
        <path class="cls-1" d="m175.55,15.33c.43-.24.91-.53,1.44-.87.53-.34,1.01-.76,1.44-1.26.43-.51.78-1.09,1.05-1.77.26-.67.32-1.44.18-2.31-.24-1.25-.97-2.2-2.2-2.85-1.23-.65-2.85-1.17-4.87-1.55.43,1.44.94,3.15,1.52,5.13.58,1.97,1.06,3.8,1.44,5.49Z"/>
        <path class="cls-1" d="m182.77,58.72c-.48-.91-.81-1.91-.97-3-.17-1.08-.25-2.25-.25-3.5s.04-2.62.11-4.12c.07-1.49.11-3.08.11-4.77-.24.58-.47,1.24-.69,1.99-.22.75-.45,1.54-.69,2.38-.24.84-.49,1.69-.76,2.53-.26.84-.54,1.65-.83,2.42-.29.82-.54,1.53-.76,2.13-.22.6-.47.99-.76,1.16-.29.17-.6.06-.94-.33-.34-.38-.75-1.15-1.23-2.31-.67-1.49-1.25-3.15-1.73-4.98,2.5-4.67,4.6-10.44,6.28-17.33,1.35-.14,2.14-.89,2.38-2.24l-8.01-4.69c-.39,5.1-1.28,9.84-2.67,14.22-.48-3.47-.81-7-.97-10.61-.17-3.61-.32-6.51-.37-9.83h11.25c.4,0,.76-.24.92-.61l.44-1.04h-12.56c-.05-1.88-.07-4.24-.04-5.95.01-1,0-1.75,0-2.59v-3.77c-2.63-.15-4.95-.77-6.25-3.44v6.21s.01,0,.01,0v2.04c0,.65,0,1.3.01,1.96v.07s0,0,0,0c.02,1.78.06,3.6.13,5.48h-10.4v-.07c-.77-.67-1.72-1.24-2.85-1.7-1.13-.46-2.18-.73-3.14-.83v9.31h-5.49V7.1c-2.58-.15-4.85-.75-6.14-3.35v19.16h-4.55l.19.89c.1.46.5.79.97.79h3.38v20.85l-5.7,1.59,3.9,9.31c.24-.1.57-.36.97-.79.41-.43.64-.99.69-1.66l10.9-9.67c-.58,4.24-1.48,8.34-2.71,12.31-1.23,3.97-2.9,7.71-5.02,11.23,2.36-2.31,4.52-4.76,6.5-7.36,1.97-2.6,3.63-5.73,4.98-9.39.87.43,1.58.88,2.13,1.34.55.46.97.95,1.26,1.48.29.53.48,1.13.58,1.8.1.67.14,1.47.14,2.38,1.64-.1,2.97-.49,4.01-1.19,1.03-.7,1.83-1.54,2.38-2.53.55-.99.93-2.03,1.12-3.14.19-1.11.31-2.14.36-3.1l.43-21.08-5.41,2.09h-3.83l-.07-11.2h10.4c.19,5.2.53,9.89,1.01,15.21.48,5.32,1.27,10.26,2.38,14.84-1.78,3.42-3.91,6.78-6.39,10.07-2.48,3.3-5.31,6.68-8.48,10.14,3.42-1.83,6.53-3.82,9.35-5.96,2.82-2.14,5.35-4.7,7.62-7.69.72,1.88,1.53,3.57,2.42,5.09.89,1.52,1.91,2.78,3.07,3.79.87.82,1.78,1.44,2.74,1.88.96.43,1.84.54,2.64.32.79-.22,1.43-.85,1.91-1.91.48-1.06.67-2.7.58-4.91Zm-35.23-27.65c0,3.85-.22,7.61-.65,11.26l-4.84,1.37v-19.12h5.49v6.48Zm6.06-.38h3.61l-.58,17.35c-.1,1.01-.32,1.73-.69,2.17-.36.43-.95.6-1.77.51l-3.54-.36c.91-2.6,1.62-5.53,2.13-8.81.51-3.27.78-6.62.83-10.85Z"/>
      </g>
      <g>
        <path class="cls-1" d="m42.36,10.97s-.02-.07-.02-.1c0-.13,0-.25-.02-.37-.03-.17-.07-.34-.14-.51.02.04.03.08.05.12-.05-.1-.08-.2-.08-.32,0-.02,0-.04,0-.05H.58l.58,1.23h41.2Z"/>
        <path class="cls-1" d="m49.47,10.97l.65-1.23h-13.76s0,.04,0,.05c-.04.39-.09.78-.13,1.17h13.23Z"/>
        <path class="cls-1" d="m33.42,34.48h16.71l.72-1.16h-16.27c3.13-3.13,6.08-6.61,8.82-10.41.58.1,1.11.08,1.59-.04.48-.12.84-.45,1.08-.98l-6.8-6c-1.35,3.09-3.12,6.09-5.32,9-2.19,2.92-4.67,5.73-7.41,8.43h-1.01v-8.68h7.16l.72-1.16h-7.88v-3.4c.96-.43,1.59-1.25,1.88-2.46l-7.86-1.8c.01.16-.03.33-.13.46.01-.01.02-.02.03-.03v7.23H6.73l.51,1.16h12.22v8.68H.51l.51,1.16h24.3c-1.35,1.3-2.72,2.56-4.12,3.76-1.4,1.21-2.82,2.36-4.27,3.47-1.59-.92-3.38-1.52-5.35-1.81v5.71c-2.03,1.4-4.03,2.68-6,3.83-1.98,1.16-3.83,2.19-5.57,3.11,1.88-.39,3.78-.86,5.71-1.41,1.93-.55,3.88-1.24,5.86-2.06v19.46c1.11.05,2.19-.04,3.25-.25,1.06-.22,2.14-.74,3.25-1.56v-2.97h18.01v2.39c.43.53.98.94,1.63,1.23.65.29,1.3.51,1.95.65.65.14,1.27.23,1.84.25.58.02,1.04-.01,1.37-.11v-28.06l-6.8,2.46v.07h-12.73c1.69-1.16,3.37-2.41,5.06-3.76,1.69-1.35,3.35-2.82,4.99-4.41Zm2.68,27.99h-18.01v-8.53h18.01v8.53Zm0-18.66v8.9h-18.01v-6.8c.58-.34,1.16-.67,1.74-1.01.58-.34,1.18-.7,1.81-1.08h14.47Z"/>
        <path class="cls-1" d="m35.32,11.96h-5.6v5.52c.29,0,.71-.01,1.27-.04.55-.02,1.12-.1,1.7-.22.58-.12,1.16-.3,1.74-.54.58-.24,1.06-.58,1.45-1.01v-3.99s-.02,0-.03.01c-.1.16-.28.27-.52.27Z"/>
        <path class="cls-1" d="m35.87,14.3V3.31c-2.59-.15-4.86-.75-6.15-3.31v14.15c2.05-.01,4.1.03,6.15.14Z"/>
        <path class="cls-1" d="m19.73,11.96h-5.6v5.52c.29,0,.71-.01,1.27-.04.55-.02,1.12-.1,1.7-.22.58-.12,1.16-.3,1.74-.54.58-.24,1.06-.58,1.45-1.01v-3.99s-.02,0-.03.01c-.1.16-.28.27-.52.27Z"/>
        <path class="cls-1" d="m20.28,14.3V3.31c-2.59-.15-4.86-.75-6.15-3.31v14.15c2.05-.01,4.1.03,6.15.14Z"/>
      </g>
      <g>
        <path class="cls-1" d="m86.59,38.82c-1.01,2.03-2.07,3.98-3.18,5.86-1.11,1.88-2.15,3.62-3.11,5.21,3.13-2.36,5.77-4.6,7.92-6.73,2.15-2.12,4.04-4.31,5.68-6.58v17.36c.87.1,1.89.06,3.07-.11,1.18-.17,2.23-.81,3.15-1.92v-25.24h14.39l.65-1.16h-15.04l-2.78-3.82c-2.08,0-1.37.29-3.44.09v3.73h-12.66l.58,1.16h9.62c-.53,1.93-1.22,3.93-2.06,6-.84,2.07-1.77,4.12-2.78,6.15Z"/>
        <path class="cls-1" d="m85.28,15.32c.34,1.54.65,3.04.94,4.48.29,1.45.55,2.7.8,3.76.72-.19,1.41-.51,2.06-.94.65-.43,1.23-.94,1.74-1.52.51-.58.89-1.22,1.16-1.92.26-.7.37-1.41.33-2.13-.14-2.31-1.03-4.31-2.64-6-1.62-1.69-3.8-3.18-6.55-4.48.34,1.25.7,2.64,1.09,4.16.39,1.52.75,3.05,1.08,4.59Z"/>
        <path class="cls-1" d="m106.48,18.43c1.54-1.93,3.09-3.98,4.63-6.15.53,0,.99-.1,1.37-.29.39-.19.7-.65.94-1.37l-7.81-5.5c-.39,3.18-.94,6.35-1.66,9.51-.72,3.16-1.52,6.3-2.39,9.44,1.74-1.83,3.37-3.71,4.92-5.64Z"/>
        <path class="cls-1" d="m108.65,33.65c-1.11-.65-2.39-1.19-3.83-1.63s-2.99-.87-4.63-1.3c.63,1.21,1.34,2.59,2.13,4.16.8,1.57,1.59,3.16,2.39,4.77.8,1.62,1.54,3.17,2.24,4.67.7,1.49,1.27,2.8,1.7,3.91,1.25-.96,2.33-2.19,3.22-3.69.89-1.49,1.22-3.18.98-5.06-.24-1.35-.72-2.5-1.45-3.44-.72-.94-1.64-1.74-2.75-2.39Z"/>
        <path class="cls-1" d="m112.66,55.28c-1.71.17-3.56.35-5.53.54-1.98.19-4,.35-6.08.47-2.07.12-4.08.21-6,.25-3.62.1-6.8-.12-9.55-.65-2.75-.53-4.99-1.76-6.73-3.69v-23.29l-6.65,2.17v.07h-6.36l.58,1.08h5.79v19.96l-7.16,4.99,4.41,10.2,5.57-9.98c.24-.39.52-.84.83-1.37.31-.53.69-.84,1.12-.94h.36c.43.19.84.68,1.23,1.45.92,1.98,2.06,3.57,3.44,4.77,1.37,1.21,2.94,2.13,4.7,2.78,1.76.65,3.66,1.06,5.71,1.23,2.05.17,4.23.22,6.55.14,2.31-.07,4.72-.22,7.23-.43,2.51-.22,5.06-.4,7.67-.54.19-1.69.55-3.36,1.08-5.03.53-1.66,1.23-3.19,2.1-4.59-1.16.1-2.59.23-4.3.4Z"/>
        <path class="cls-1" d="m71.69,13.04c.39,1.62.73,3.19,1.05,4.74.31,1.54.61,2.97.9,4.27.67-.14,1.39-.39,2.13-.72.75-.34,1.43-.8,2.06-1.37.63-.58,1.14-1.29,1.55-2.13.41-.84.59-1.84.54-3-.05-1.3-.37-2.5-.98-3.58-.6-1.08-1.41-2.08-2.42-3-1.01-.92-2.17-1.72-3.47-2.42-1.3-.7-2.65-1.29-4.05-1.77.48,1.25.95,2.66,1.41,4.23.46,1.57.88,3.16,1.27,4.77Z"/>
        <path class="cls-1" d="m100.04,26.89V4.48c-2.59-.15-4.86-.75-6.15-3.31v25.59c2.05-.01,4.1.03,6.15.14Z"/>
      </g>
      <g>
        <path class="cls-1" d="m220.66,15.51c1.01,2.07,1.94,4.06,2.78,5.97.84,1.91,1.51,3.48,1.99,4.74.77-.67,1.51-1.41,2.21-2.21.7-.8,1.29-1.65,1.77-2.57.48-.92.82-1.89,1.01-2.93.19-1.04.19-2.13,0-3.29-.24-1.45-.86-2.77-1.84-3.98-.99-1.2-2.23-2.28-3.72-3.22-1.49-.94-3.16-1.75-4.99-2.42-1.83-.67-3.71-1.2-5.64-1.59,1.06,1.54,2.15,3.33,3.25,5.35,1.11,2.03,2.17,4.08,3.18,6.15Z"/>
        <path class="cls-1" d="m246.45,39.09c-.7-1.54-1.63-3.03-2.78-4.45-1.16-1.42-2.52-2.77-4.09-4.05-1.57-1.28-3.22-2.54-4.95-3.8.63,1.98,1.23,4.16,1.81,6.55.58,2.39,1.1,4.77,1.55,7.16.46,2.39.87,4.64,1.23,6.76.36,2.12.61,3.88.76,5.28.96,0,1.92-.14,2.86-.43.94-.29,1.77-.77,2.5-1.45.72-.67,1.3-1.55,1.74-2.64.43-1.08.63-2.4.58-3.94-.1-1.78-.49-3.45-1.19-4.99Z"/>
        <path class="cls-1" d="m235.6,54.53c-.36-1.42-.61-2.97-.76-4.63-.14-1.66-.23-3.29-.25-4.88-.02-1.59-.04-2.84-.04-3.76-.1.43-.24,1.15-.43,2.13-.19.99-.43,2.1-.72,3.33-.29,1.23-.64,2.49-1.05,3.8-.41,1.3-.89,2.5-1.45,3.58-.55,1.08-1.19,1.98-1.92,2.68-.72.7-1.52,1.05-2.39,1.05h-6.15c-.96,0-1.68-.24-2.13-.72-.46-.48-.69-1.28-.69-2.39v-9.54c-2.32-.1-4.64-.07-6.96-.07l.02,10.91c0,3.28.53,5.52,1.59,6.73,1.06,1.21,2.72,1.81,4.99,1.81h13.6c.87,0,1.69-.11,2.46-.33.77-.22,1.45-.6,2.02-1.16s1.04-1.28,1.37-2.17c.34-.89.51-2.01.51-3.36-.72-.58-1.27-1.58-1.63-3Z"/>
        <path class="cls-1" d="m204.82,26.72c-.34,2.22-.84,4.5-1.52,6.84-.68,2.34-1.42,4.58-2.24,6.73-.82,2.15-1.64,4.12-2.46,5.93-.82,1.81-1.54,3.29-2.17,4.45.48.72,1.01,1.37,1.59,1.95s1.19.99,1.84,1.23c.65.24,1.35.24,2.1,0,.75-.24,1.55-.84,2.42-1.81.87-.96,1.53-2.3,1.99-4.01.46-1.71.71-3.68.76-5.89.05-2.22-.12-4.63-.51-7.23-.39-2.6-.99-5.33-1.81-8.17Z"/>
        <path class="cls-1" d="m217.62,50.48v-28.13c-2.95-.15-5.54-.75-7-3.31v31.3c2.33-.01,4.67.03,7,.14Z"/>
      </g>
    </g>
  </g>
</svg>