<?xml version="1.0" encoding="UTF-8"?>
<svg id="_圖層_2" data-name="圖層 2" xmlns="http://www.w3.org/2000/svg" xmlns:xlink="http://www.w3.org/1999/xlink" viewBox="0 0 1238.69 190.75">
  <defs>
    <style>
      .cls-1 {
        fill: url(#_未命名漸層_5-2);
      }

      .cls-2 {
        fill: url(#_未命名漸層_5-4);
      }

      .cls-3 {
        fill: url(#_未命名漸層_5-3);
      }

      .cls-4 {
        filter: url(#drop-shadow-1);
        opacity: .63;
      }

      .cls-5 {
        fill: url(#_未命名漸層_5);
      }

      .cls-6 {
        fill: url(#_未命名漸層_5-5);
      }

      .cls-7 {
        fill: url(#_未命名漸層_5-6);
      }
    </style>
    <filter id="drop-shadow-1" filterUnits="userSpaceOnUse">
      <feOffset dx="3.85" dy="3.85"/>
      <feGaussianBlur result="blur" stdDeviation="7.69"/>
      <feFlood flood-color="#060102" flood-opacity=".8"/>
      <feComposite in2="blur" operator="in"/>
      <feComposite in="SourceGraphic"/>
    </filter>
    <linearGradient id="_未命名漸層_5" data-name="未命名漸層 5" x1="84.19" y1="-9.63" x2="88.19" y2="241.93" gradientUnits="userSpaceOnUse">
      <stop offset="0" stop-color="#fff"/>
      <stop offset=".1" stop-color="#f9f9f9" stop-opacity=".98"/>
      <stop offset=".22" stop-color="#eaeaea" stop-opacity=".92"/>
      <stop offset=".36" stop-color="#d0d0d0" stop-opacity=".82"/>
      <stop offset=".51" stop-color="#adadad" stop-opacity=".68"/>
      <stop offset=".66" stop-color="#7f7f7f" stop-opacity=".5"/>
      <stop offset=".82" stop-color="#484848" stop-opacity=".28"/>
      <stop offset=".98" stop-color="#070707" stop-opacity=".03"/>
      <stop offset="1" stop-color="#000" stop-opacity="0"/>
    </linearGradient>
    <linearGradient id="_未命名漸層_5-2" data-name="未命名漸層 5" x1="270.49" y1="-12.59" x2="274.49" y2="238.97" xlink:href="#_未命名漸層_5"/>
    <linearGradient id="_未命名漸層_5-3" data-name="未命名漸層 5" x1="439.96" y1="-15.28" x2="443.95" y2="236.28" xlink:href="#_未命名漸層_5"/>
    <linearGradient id="_未命名漸層_5-4" data-name="未命名漸層 5" x1="632.81" y1="-18.34" x2="636.8" y2="233.22" xlink:href="#_未命名漸層_5"/>
    <linearGradient id="_未命名漸層_5-5" data-name="未命名漸層 5" x1="888.88" y1="-22.4" x2="892.87" y2="229.16" xlink:href="#_未命名漸層_5"/>
    <linearGradient id="_未命名漸層_5-6" data-name="未命名漸層 5" x1="1142.04" y1="-26.42" x2="1146.04" y2="225.14" xlink:href="#_未命名漸層_5"/>
  </defs>
  <g id="_圖層_9" data-name="圖層 9">
    <g class="cls-4">
      <path class="cls-5" d="m168.92,187.91h-34.4v-27.99c-17.49,19.49-38.35,29.23-62.57,29.23-17.98,0-32.25-5.06-42.81-15.17-10.55-10.11-15.83-24.08-15.83-41.92V23.3c0-6.58-.78-10.75-2.34-12.51-1.56-1.77-5.22-2.65-10.97-2.65v-1.85h48.21v1.85c-5.1,0-8.69.8-10.79,2.4-2.09,1.6-3.14,5.41-3.14,11.41v99.75c0,20.88,4.88,35.78,14.65,44.7,9.77,8.92,20.9,13.37,33.38,13.37,19.62,0,37.03-8.84,52.21-26.51V30.33c0-10.76-.94-17.16-2.84-19.17-1.89-2.01-4.85-3.02-8.88-3.02h-1.72v-1.85h47.84v1.85c-5.92.33-9.63,1.31-11.16,2.95-1.52,1.64-2.28,4.76-2.28,9.37v147.86c0,5.84.29,9.65.87,11.46.57,1.8,1.74,3.3,3.51,4.5,1.76,1.19,4.79,1.79,9.06,1.79v1.85Z"/>
      <path class="cls-1" d="m214.64,8.14v-1.85h51.78c18.42,0,31.79,2.06,40.14,6.18,8.34,4.11,14.42,9.24,18.24,15.37,3.82,6.13,5.73,14.22,5.73,24.26,0,15.39-5.3,26.96-15.9,34.69-10.6,7.74-24.99,11.45-43.16,11.11v-1.85c11.5,0,20.85-3.54,28.05-10.61,7.2-7.07,10.79-16.35,10.79-27.86,0-8.96-1.75-16.91-5.24-23.86-3.5-6.94-8.41-12.22-14.74-15.84-6.33-3.62-15.98-5.43-28.98-5.43h-12.94v155.38c0,8.79.98,14.03,2.96,15.71,1.98,1.68,5.72,2.53,11.22,2.53v1.85h-47.96v-1.85c8.55,0,12.82-3.9,12.82-11.71V24.03c0-6.41-.82-10.66-2.47-12.76-1.64-2.09-5.1-3.14-10.35-3.14Z"/>
      <path class="cls-3" d="m516.59,0l-8.63,21.94h-1.85c.33-1.31.5-3.08.5-5.3,0-1.89-.68-3.1-2.03-3.63-1.36-.54-3.51-.8-6.46-.8h-47.36v155.37c0,6.41.51,10.78,1.54,13.12,1.03,2.34,2.42,3.82,4.2,4.44,1.76.62,4.63.93,8.57.93v1.85h-49.2v-1.85c6.16-.41,10.02-1.6,11.59-3.58,1.56-1.97,2.35-6.08,2.35-12.32V12.2h-45.4c-4.59,0-7.59.27-8.98.8-1.39.54-2.09,1.87-2.09,4.01,0,1.07.33,2.71.98,4.93h-1.85l-8.63-21.94h1.85c1.48,2.96,2.94,4.75,4.37,5.36,1.43.62,4.53.93,9.29.93h120.52c4.76,0,8.19-.31,10.28-.93,2.09-.61,3.63-2.4,4.62-5.36h1.85Z"/>
      <path class="cls-2" d="m642.09,3.57c25.48,0,46.32,7.76,62.52,23.25,16.19,15.5,24.29,34.83,24.29,58.02,0,29.84-9.37,54.95-28.11,75.34-18.75,20.38-43.61,30.58-74.61,30.58-25.15,0-45.74-8.22-61.77-24.66-16.03-16.44-24.05-36.17-24.05-59.19,0-15.54,3.86-31.48,11.59-47.84,7.72-16.36,19.36-29.69,34.9-40.01,15.54-10.32,33.94-15.48,55.24-15.48Zm-.74,177.56c12.5,0,24.82-3.35,36.99-10.05,12.16-6.7,21.74-15.93,28.72-27.68,6.98-11.75,10.48-23.84,10.48-36.25,0-17.59-4.71-33.58-14.11-47.97-9.42-14.38-21.62-25.64-36.62-33.78-15.01-8.14-28.88-12.21-41.62-12.21-18,0-34.33,6.78-49.01,20.35-14.68,13.56-22.01,30.42-22.01,50.56,0,25.72,8.96,48.33,26.88,67.82,17.92,19.48,38.02,29.22,60.3,29.22Z"/>
      <path class="cls-6" d="m943.44,190.75h-3.05l-50.12-138.47-49.21,138.47h-2.78l-59.1-162.15c-2.39-6.58-4.94-11.63-7.64-15.16-2.72-3.54-6.66-5.3-11.84-5.3v-1.85h42.9v1.85c-4.18,0-6.27,1.52-6.27,4.55,0,1.81.66,4.56,1.97,8.26l48.14,132.06,39.52-111.57-3.82-10.62c-3.37-9.28-6.6-15.39-9.68-18.31-3.08-2.92-6.56-4.37-10.42-4.37v-1.85h42.42v1.85c-4.09,0-6.14,1.76-6.14,5.29,0,1.07.86,3.9,2.59,8.5l47.99,131.58,47.95-133.89c.08-.33.16-.54.24-.62l1.85-6.3c0-3.04-2.15-4.56-6.45-4.56v-1.85h26.51v1.85c-7.24.08-12.95,5.96-17.14,17.63l-58.43,164.98Z"/>
      <path class="cls-7" d="m1203.55,6.28h35.14v1.85c-5.34.16-9.04,1.29-11.09,3.39-2.06,2.09-3.09,6.51-3.09,13.25v165.35l-144.88-154.27v134.31c0,4.27.33,7.43.98,9.48.66,2.06,1.6,3.46,2.84,4.2,1.24.74,4.32,1.48,9.24,2.22v1.85h-34.89v-1.85c6.24,0,10.12-1.11,11.65-3.33,1.52-2.21,2.28-7.51,2.28-15.9V43.99c0-10.76-1.5-19.55-4.5-26.37-3-6.82-9.93-9.98-20.78-9.49v-1.85h34.16l136.13,144.95V23.05c0-6.9-1.24-11.11-3.7-12.63-2.46-1.52-5.63-2.28-9.5-2.28v-1.85Z"/>
    </g>
  </g>
</svg>