<?xml version="1.0" encoding="UTF-8"?>
<svg id="_圖層_2" data-name="圖層 2" xmlns="http://www.w3.org/2000/svg" viewBox="0 0 561.08 54.11">
  <defs>
    <style>
      .cls-1 {
        fill: #fff;
      }

      .cls-2 {
        fill: #ac8b6b;
      }
    </style>
  </defs>
  <g id="_圖層_5" data-name="圖層 5">
    <g>
      <path class="cls-2" d="m30.67,29.12h-15.63l-8.06,19.82c-.55,1.43-.83,2.31-.83,2.64,0,.78.59,1.18,1.77,1.18v.54H0v-.54c1.06,0,1.95-.25,2.67-.77.72-.51,1.52-1.84,2.38-3.98L24.36,0h.96l18.99,46.37c0,.24.49,1.36,1.46,3.37.97,2.01,2.46,3.01,4.45,3.01v.54h-12.44v-.54c1.13,0,1.7-.44,1.7-1.32,0-.59-.28-1.54-.83-2.85-.1-.09-.18-.25-.25-.46-.05-.24-.08-.36-.11-.36l-7.62-18.64Zm-15.12-1.46h14.41l-7.2-17.89-7.21,17.89Z"/>
      <path class="cls-2" d="m55.48,1.32v-.53h13.85c4.05,0,6.92.17,8.61.5,1.69.33,3.3.97,4.84,1.91,1.54.94,2.86,2.29,3.94,4.06,1.08,1.77,1.63,3.79,1.63,6.04,0,4.44-2.22,7.95-6.65,10.51,3.83.64,6.73,2.21,8.68,4.69,1.95,2.48,2.93,5.5,2.93,9.04,0,3.3-.84,6.31-2.51,9.02-1.68,2.71-3.59,4.51-5.75,5.4-2.16.89-5.18,1.34-9.06,1.34h-20.57v-.54c1.64,0,2.69-.33,3.15-.98.46-.65.69-2.32.69-5V7.23c0-1.9-.05-3.19-.16-3.88s-.46-1.2-1.07-1.53-1.45-.5-2.53-.5Zm9.91.57v23.06h6.47c4.39,0,7.3-1.23,8.73-3.71,1.43-2.47,2.15-4.93,2.15-7.38,0-2.64-.55-4.84-1.66-6.61-1.11-1.77-2.73-3.11-4.86-4.01-2.13-.9-5.27-1.35-9.42-1.35h-1.41Zm4.16,24.17h-4.16v16.65c0,2.3.09,3.8.27,4.49.18.69.59,1.42,1.23,2.17.64.76,1.67,1.37,3.09,1.84,1.42.46,3.47.69,6.15.69,4.15,0,7.08-.94,8.79-2.83,1.71-1.89,2.57-4.69,2.57-8.39s-.76-6.99-2.28-9.41-3.24-3.9-5.15-4.42c-1.92-.52-5.42-.78-10.5-.78Z"/>
      <path class="cls-2" d="m129.75,0c7.47,0,13.58,2.24,18.33,6.72s7.12,10.07,7.12,16.77c0,8.63-2.75,15.89-8.24,21.78-5.5,5.89-12.79,8.84-21.88,8.84-7.38,0-13.42-2.38-18.12-7.13s-7.05-10.46-7.05-17.11c0-4.49,1.13-9.1,3.4-13.83s5.68-8.58,10.23-11.57c4.56-2.98,9.96-4.47,16.2-4.47Zm-.22,51.33c3.66,0,7.28-.97,10.85-2.9,3.57-1.94,6.38-4.6,8.42-8s3.07-6.89,3.07-10.48c0-5.08-1.38-9.71-4.14-13.87-2.76-4.16-6.34-7.41-10.74-9.77-4.4-2.35-8.47-3.53-12.2-3.53-5.28,0-10.07,1.96-14.37,5.88s-6.45,8.79-6.45,14.61c0,7.44,2.63,13.97,7.88,19.6,5.25,5.63,11.15,8.45,17.68,8.45Z"/>
      <path class="cls-2" d="m183.69,54.11h-.69l-18.96-46.23c-1.35-3.25-2.46-5.16-3.33-5.72-.87-.56-1.76-.84-2.68-.84v-.53h12.29v.53c-1.08-.07-1.63.34-1.63,1.25,0,.36.07.74.22,1.14l16.54,40.41L201.85,3.72c.22-.54.33-.98.33-1.31,0-.8-.62-1.17-1.87-1.1v-.53h7.99v.53c-.55,0-1.14.08-1.75.23-.62.16-1.25.77-1.9,1.84-.65,1.07-.99,1.64-1.01,1.71l-19.94,49.01Z"/>
      <path class="cls-2" d="m213.37,1.39v-.61h33.48v7.24h-.54c-.72-2.68-1.33-4.26-1.83-4.74-.5-.47-1.71-.71-3.63-.71h-17.57v23.56h16.31c1.62,0,2.64-.15,3.07-.45.43-.3.66-.73.69-1.3h.54v4.96h-.54c-.12-.69-.4-1.15-.85-1.39-.45-.24-1.27-.36-2.48-.36h-16.74v16.22c0,2.45.23,4.21.69,5.29.46,1.08,1.19,1.76,2.18,2.03s2.51.41,4.53.41h9.39c2.99,0,4.89-.1,5.72-.3.83-.2,1.54-.6,2.11-1.2.58-.6,1.02-1.92,1.34-3.95h.54v7.2h-36.41v-.54c1.23-.07,2.16-.3,2.8-.69.64-.39.96-1.41.96-3.04V6.63c0-1.92-.17-3.28-.51-4.06-.34-.78-1.42-1.18-3.25-1.18Z"/>
      <path class="cls-1" d="m274.92,53.29v-.54c1.66,0,2.74-.31,3.24-.93.49-.62.74-1.67.74-3.17V5.7c0-1.52-.19-2.62-.58-3.29s-1.54-1.04-3.47-1.09v-.53h14.28v.53c-1.33,0-2.25.17-2.78.5-.53.33-.88.73-1.05,1.18-.17.45-.25,1.47-.25,3.07v36.86c0,3.16.77,5.39,2.31,6.68,1.54,1.3,4.18,1.94,7.91,1.94h6.5c3.13,0,5.42-.76,6.88-2.28,1.46-1.52,2.27-4.38,2.44-8.59h.54v12.62h-36.7Z"/>
      <path class="cls-1" d="m363.83,53.29h-10.09v-8.09c-5.13,5.63-11.25,8.45-18.35,8.45-5.27,0-9.46-1.46-12.55-4.38-3.09-2.92-4.64-6.96-4.64-12.12V5.7c0-1.9-.23-3.11-.69-3.62-.46-.51-1.53-.77-3.22-.77v-.53h14.14v.53c-1.5,0-2.55.23-3.16.7-.62.46-.92,1.56-.92,3.3v28.84c0,6.04,1.43,10.34,4.3,12.92s6.13,3.87,9.79,3.87c5.75,0,10.86-2.55,15.31-7.66V7.74c0-3.11-.28-4.96-.83-5.54-.55-.58-1.42-.87-2.6-.87h-.51v-.53h14.03v.53c-1.74.1-2.83.38-3.27.85-.45.48-.67,1.38-.67,2.71v42.74c0,1.69.08,2.79.25,3.31.17.52.51.96,1.03,1.3.52.34,1.4.52,2.66.52v.54Z"/>
      <path class="cls-1" d="m412.18.79v.53c-1.49-.17-2.82.56-3.98,2.17-.02,0-.06.04-.11.11-.02.07-.06.13-.11.18l-.29.39c-.12.14-.18.24-.18.29l-.36.36-13.55,18.78,16.23,23.11c1.78,2.66,3.15,4.35,4.09,5.08.94.72,1.84,1.05,2.71.98v.54h-13.23v-.54c1.13.07,1.69-.32,1.69-1.17,0-.69-.37-1.56-1.12-2.63l-14.16-20.1-14.25,19.71s-.28.42-.84,1.2c-.65.76-.98,1.44-.98,2.03,0,.71.6,1.04,1.81.96v.54h-7.95v-.54c1.16,0,2.17-.44,3.04-1.32l.61-.64,17.28-23.78-15.94-22.63c0-.33-.46-.95-1.37-1.85-.92-.9-1.94-1.31-3.07-1.21v-.53h13.42v.53c-1.45,0-2.17.39-2.17,1.18,0,.57.45,1.49,1.34,2.74l11.61,16.54,12.56-17.31s.21-.36.56-1c.35-.64.52-1.05.52-1.22,0-.41-.13-.66-.38-.77-.25-.11-.75-.16-1.48-.16v-.53h8.06Z"/>
      <path class="cls-1" d="m469.49,53.29h-10.09v-8.09c-5.13,5.63-11.25,8.45-18.35,8.45-5.27,0-9.46-1.46-12.55-4.38-3.09-2.92-4.64-6.96-4.64-12.12V5.7c0-1.9-.23-3.11-.69-3.62-.46-.51-1.53-.77-3.22-.77v-.53h14.14v.53c-1.5,0-2.55.23-3.16.7-.62.46-.92,1.56-.92,3.3v28.84c0,6.04,1.43,10.34,4.3,12.92s6.13,3.87,9.79,3.87c5.75,0,10.86-2.55,15.31-7.66V7.74c0-3.11-.28-4.96-.83-5.54-.55-.58-1.42-.87-2.6-.87h-.51v-.53h14.03v.53c-1.74.1-2.83.38-3.27.85-.45.48-.67,1.38-.67,2.71v42.74c0,1.69.08,2.79.25,3.31.17.52.51.96,1.03,1.3.52.34,1.4.52,2.66.52v.54Z"/>
      <path class="cls-1" d="m475.42,1.32v-.53h15.11c3.83,0,6.6.08,8.32.25,1.71.17,3.47.72,5.26,1.66,1.79.94,3.15,2.21,4.07,3.82.92,1.61,1.37,3.57,1.37,5.9,0,2.66-.81,5.2-2.44,7.62-1.63,2.41-3.92,4.45-6.89,6.12l3.76,5.7c.82,1.42,3,4.55,6.53,9.37,3.53,4.82,6.26,7.76,8.19,8.82,1.93,1.06,3.8,1.59,5.6,1.59s3.83-.68,6.15-2.03l.22.71c-2.89,2.33-6.65,3.49-11.27,3.49-3.08,0-5.73-.9-7.95-2.7s-6.07-6.74-11.57-14.81c-.05-.05-.07-.09-.07-.14l-5.35-8.12-4.75.14h-4.31v20.07c0,1.61.21,2.77.64,3.47.43.7,1.47,1.05,3.12,1.05v.54h-13.74v-.54c1.71-.07,2.78-.43,3.2-1.07.42-.64.63-1.95.63-3.92V6.06c0-1.35-.18-2.47-.54-3.37-.36-.89-1.46-1.35-3.29-1.37Zm9.98.86v24.63h5.58c4.4,0,7.66-1.02,9.78-3.06,2.13-2.04,3.19-4.73,3.19-8.06s-1.04-6.29-3.13-9.18c-2.09-2.89-5.77-4.33-11.03-4.33h-4.38Z"/>
      <path class="cls-1" d="m553.09.79h7.99v.53c-1.01.07-1.84.31-2.5.71-.65.4-1.4,1.24-2.24,2.5l-13.02,19.46v24.03c0,1.94.25,3.22.77,3.82s1.62.91,3.32.91v.54h-14.25v-.54c2.72.17,4.09-.89,4.09-3.17l-.07-1.5v-22.19l-13.05-21.3c-1.37-2.26-2.91-3.35-4.59-3.28v-.53h12.58v.53c-1.17,0-1.76.44-1.76,1.32,0,.45.3,1.15.9,2.1l10.74,17.47,11.73-17.61c.22-.19.46-.54.72-1.05.26-.51.4-.86.4-1.05,0-.79-.52-1.18-1.55-1.18h-.22v-.53Z"/>
    </g>
  </g>
</svg>