<?xml version="1.0" encoding="UTF-8"?>
<svg id="_圖層_2" data-name="圖層 2" xmlns="http://www.w3.org/2000/svg" viewBox="0 0 478.82 54.96">
  <defs>
    <style>
      .cls-1 {
        fill: #fff;
      }

      .cls-2 {
        fill: #ac8b6b;
      }
    </style>
  </defs>
  <g id="_圖層_6" data-name="圖層 6">
    <g>
      <path class="cls-1" d="m50.93,53.79v.54h-20.81c-3.99,0-7.49-.44-10.49-1.32s-6.06-2.55-9.18-5.01c-3.12-2.46-5.64-5.52-7.57-9.18-1.93-3.66-2.89-7.4-2.89-11.23,0-4.18,1.21-8.35,3.63-12.51s5.86-7.54,10.32-10.14c4.46-2.6,9.52-3.9,15.17-3.9,5.07,0,10.43,1.14,16.08,3.42l2.14,6.06h-.51c-1.8-2.33-4.25-4.26-7.37-5.79-3.12-1.53-6.59-2.3-10.42-2.3-6.65,0-12.1,2.55-16.35,7.65-4.25,5.1-6.37,11.42-6.37,18.98,0,3.14.35,5.93,1.05,8.39.7,2.46,2.01,4.88,3.94,7.27,1.93,2.39,3.99,4.15,6.2,5.28,2.21,1.13,4.68,1.91,7.41,2.35,2.73.44,4.9.64,6.52.59l2.77-.07c3.13-.12,5.08-.42,5.87-.89.78-.47,1.17-1.69,1.17-3.64v-7.95c0-1.54-.32-2.58-.95-3.12-.63-.54-1.53-.77-2.7-.7v-.53h13.35v.53c-1.49,0-2.49.3-3,.89s-.75,1.73-.75,3.41v8.25c0,1.66.22,2.85.65,3.58.43.72,1.22,1.08,2.36,1.08h.74Z"/>
      <path class="cls-1" d="m56.72,2.35v-.53h14.64c3.71,0,6.4.08,8.06.25,1.66.17,3.36.72,5.1,1.66,1.74.94,3.05,2.21,3.94,3.82.89,1.61,1.33,3.57,1.33,5.9,0,2.66-.79,5.2-2.37,7.62-1.58,2.41-3.8,4.45-6.67,6.12l3.64,5.7c.79,1.42,2.9,4.55,6.32,9.37,3.42,4.82,6.07,7.76,7.93,8.82,1.87,1.06,3.68,1.59,5.43,1.59s3.71-.68,5.96-2.03l.21.71c-2.8,2.33-6.44,3.49-10.92,3.49-2.99,0-5.55-.9-7.7-2.7s-5.88-6.74-11.21-14.81c-.05-.05-.07-.09-.07-.14l-5.19-8.12-4.6.14h-4.18v20.07c0,1.61.21,2.77.62,3.47.42.7,1.42,1.05,3.02,1.05v.54h-13.31v-.54c1.66-.07,2.69-.43,3.1-1.07.41-.64.61-1.95.61-3.92V7.09c0-1.35-.18-2.47-.53-3.37-.35-.89-1.41-1.35-3.19-1.37Zm9.67.86v24.63h5.4c4.26,0,7.42-1.02,9.48-3.06,2.06-2.04,3.09-4.73,3.09-8.06s-1.01-6.29-3.04-9.18c-2.02-2.89-5.59-4.33-10.69-4.33h-4.25Z"/>
      <path class="cls-1" d="m115.33,2.42v-.61h32.44v7.24h-.53c-.7-2.68-1.29-4.26-1.77-4.74-.48-.47-1.65-.71-3.52-.71h-17.02v23.56h15.8c1.56,0,2.56-.15,2.98-.45.42-.3.64-.73.67-1.3h.53v4.96h-.53c-.12-.69-.39-1.15-.82-1.39-.43-.24-1.23-.36-2.4-.36h-16.22v16.22c0,2.45.22,4.21.66,5.29.44,1.08,1.15,1.76,2.12,2.03s2.43.41,4.39.41h9.1c2.89,0,4.74-.1,5.54-.3.8-.2,1.49-.6,2.05-1.2.56-.6.99-1.92,1.29-3.95h.53v7.2h-35.27v-.54c1.19-.07,2.1-.3,2.71-.69.62-.39.93-1.41.93-3.04V7.66c0-1.92-.16-3.28-.49-4.06s-1.38-1.18-3.15-1.18Z"/>
      <path class="cls-1" d="m156.01,2.42v-.61h32.44v7.24h-.53c-.7-2.68-1.29-4.26-1.77-4.74-.48-.47-1.65-.71-3.52-.71h-17.02v23.56h15.8c1.56,0,2.56-.15,2.98-.45.42-.3.64-.73.67-1.3h.53v4.96h-.53c-.12-.69-.39-1.15-.82-1.39-.43-.24-1.23-.36-2.4-.36h-16.22v16.22c0,2.45.22,4.21.66,5.29.44,1.08,1.15,1.76,2.12,2.03s2.43.41,4.39.41h9.1c2.89,0,4.74-.1,5.54-.3.8-.2,1.49-.6,2.05-1.2.56-.6.99-1.92,1.29-3.95h.53v7.2h-35.27v-.54c1.19-.07,2.1-.3,2.71-.69.62-.39.93-1.41.93-3.04V7.66c0-1.92-.16-3.28-.49-4.06s-1.38-1.18-3.15-1.18Z"/>
      <path class="cls-1" d="m239,1.82h9.98v.53c-1.52.05-2.57.37-3.15.98-.58.61-.88,1.88-.88,3.83v47.8l-41.16-44.6v38.83c0,1.24.09,2.15.28,2.74.19.59.46,1,.81,1.21s1.23.43,2.63.64v.54h-9.91v-.54c1.77,0,2.88-.32,3.31-.96.43-.64.65-2.17.65-4.6V12.72c0-3.11-.43-5.65-1.28-7.62-.85-1.97-2.82-2.89-5.9-2.74v-.53h9.7l38.67,41.9V6.66c0-2-.35-3.21-1.05-3.65-.7-.44-1.6-.66-2.7-.66v-.53Z"/>
      <path class="cls-2" d="m303.4,2.5l2.45,6.56-.42.07s-.65-.72-1.94-2.1c-1.3-1.38-2.78-2.44-4.45-3.19-1.67-.75-3.56-1.12-5.66-1.12-3.53,0-6.32,1.03-8.39,3.08-2.07,2.06-3.1,4.53-3.1,7.43,0,1.92.48,3.61,1.45,5.04.97,1.44,2.99,2.78,6.07,4.02,5.3,1.82,8.92,3.18,10.87,4.1,1.95.91,3.83,2.46,5.65,4.65,1.81,2.18,2.72,4.98,2.72,8.4,0,1.42-.16,2.78-.49,4.08-.33,1.29-.85,2.54-1.58,3.74-.72,1.2-1.59,2.29-2.61,3.28-1.02.99-2.05,1.73-3.1,2.24s-2.71.9-4.97,1.16c-2.27.26-3.76.39-4.48.39h-13.77v-15.26h.53c.05,5.06,1.21,8.59,3.5,10.59,2.29,2,5.85,2.99,10.68,2.99,4.39,0,7.72-1.06,10-3.17,2.28-2.11,3.42-4.66,3.42-7.63,0-1.81-.4-3.34-1.19-4.62-.79-1.27-1.9-2.39-3.33-3.35-1.42-.96-4.12-2.14-8.09-3.52-3.94-1.41-6.72-2.64-8.32-3.7-1.6-1.06-2.94-2.65-4.01-4.77-1.08-2.12-1.61-4.29-1.61-6.5,0-4.06,1.37-7.47,4.12-10.22s6.35-4.13,10.81-4.13c1.73,0,3.6.2,5.6.61,2.01.4,3.13.67,3.36.78.09.05.19.07.28.07Z"/>
      <path class="cls-2" d="m355.42,0l-2.45,6.34h-.53c.09-.38.14-.89.14-1.53,0-.55-.19-.9-.58-1.05-.38-.15-1-.23-1.84-.23h-13.46v44.92c0,1.85.15,3.12.44,3.79.29.68.69,1.1,1.19,1.28.5.18,1.31.27,2.43.27v.54h-13.98v-.54c1.75-.12,2.85-.46,3.29-1.03.44-.57.67-1.76.67-3.56V3.53h-12.9c-1.31,0-2.16.08-2.55.23-.4.15-.59.54-.59,1.16,0,.31.09.78.28,1.43h-.53l-2.45-6.34h.53c.42.86.83,1.37,1.24,1.55.41.18,1.29.27,2.64.27h34.24c1.35,0,2.33-.09,2.92-.27.59-.18,1.03-.7,1.31-1.55h.53Z"/>
      <path class="cls-2" d="m390.07,1.82h7.74v.53c-.98.07-1.79.31-2.42.71-.63.4-1.35,1.24-2.17,2.5l-12.61,19.46v24.03c0,1.94.25,3.22.74,3.82s1.57.91,3.22.91v.54h-13.8v-.54c2.64.17,3.96-.89,3.96-3.17l-.07-1.5v-22.19l-12.65-21.3c-1.33-2.26-2.81-3.35-4.45-3.28v-.53h12.19v.53c-1.14,0-1.7.44-1.7,1.32,0,.45.29,1.15.88,2.1l10.41,17.47,11.37-17.61c.21-.19.44-.54.7-1.05s.39-.86.39-1.05c0-.79-.5-1.18-1.51-1.18h-.21v-.53Z"/>
      <path class="cls-2" d="m400.94,54.32v-.54c1.61,0,2.66-.31,3.13-.93.48-.62.72-1.67.72-3.17V6.73c0-1.52-.19-2.62-.56-3.29-.37-.68-1.5-1.04-3.36-1.09v-.53h13.84v.53c-1.29,0-2.18.17-2.7.5-.51.33-.85.73-1.02,1.18-.16.45-.25,1.47-.25,3.07v36.86c0,3.16.75,5.39,2.24,6.68,1.49,1.3,4.05,1.94,7.66,1.94h6.3c3.03,0,5.25-.76,6.66-2.28s2.2-4.38,2.36-8.59h.53v12.62h-35.55Z"/>
      <path class="cls-2" d="m443.54,2.42v-.61h32.44v7.24h-.53c-.7-2.68-1.29-4.26-1.77-4.74-.48-.47-1.65-.71-3.52-.71h-17.02v23.56h15.8c1.56,0,2.56-.15,2.98-.45.42-.3.64-.73.67-1.3h.53v4.96h-.53c-.12-.69-.39-1.15-.82-1.39-.43-.24-1.23-.36-2.4-.36h-16.22v16.22c0,2.45.22,4.21.66,5.29.44,1.08,1.15,1.76,2.12,2.03s2.43.41,4.39.41h9.1c2.89,0,4.74-.1,5.54-.3.8-.2,1.49-.6,2.05-1.2.56-.6.99-1.92,1.29-3.95h.53v7.2h-35.27v-.54c1.19-.07,2.1-.3,2.71-.69.62-.39.93-1.41.93-3.04V7.66c0-1.92-.16-3.28-.49-4.06s-1.38-1.18-3.15-1.18Z"/>
    </g>
  </g>
</svg>