<?xml version="1.0" encoding="UTF-8"?>
<svg id="_圖層_2" data-name="圖層 2" xmlns="http://www.w3.org/2000/svg" xmlns:xlink="http://www.w3.org/1999/xlink" viewBox="0 0 536.22 31.26">
  <defs>
    <style>
      .cls-1 {
        fill: #fff;
      }

      .cls-2 {
        fill: #fff6a2;
      }

      .cls-3 {
        filter: url(#drop-shadow-1);
      }
    </style>
    <filter id="drop-shadow-1" filterUnits="userSpaceOnUse">
      <feOffset dx="7" dy="7"/>
      <feGaussianBlur result="blur" stdDeviation="12"/>
      <feFlood flood-color="#000" flood-opacity=".75"/>
      <feComposite in2="blur" operator="in"/>
      <feComposite in="SourceGraphic"/>
    </filter>
  </defs>
  <g id="_圖層_3" data-name="圖層 3">
    <g>
      <g>
        <path class="cls-1" d="m149.66,30.44c0,.2-.96.79-2.48.79h-.53v-5.35c-2.38.76-5.41,1.68-9.31,2.77-.17.4-.5.63-.83.73l-1.58-3.53c.79-.03,1.91-.13,3.27-.23v-11.22h-3.33l-.26-.96h24.85l1.88-2.48s2.15,1.68,3.4,2.9c-.1.36-.43.53-.89.53h-14.19v16.04Zm-7.26-18.81c0,.3-1.39.96-2.64.96h-.46V1.16l3.3,1.39h14.06l1.55-1.72,3.3,2.51c-.23.26-.69.56-1.39.69v7.33c-.03.23-1.58.79-2.61.79h-.53V3.51h-14.59v8.12Zm-1.19,2.77v2.9h5.45v-2.9h-5.45Zm0,6.83h5.45v-2.97h-5.45v2.97Zm0,4.13c1.68-.17,3.53-.36,5.45-.56v-2.61h-5.45v3.17Zm12.48-17.2s1.39,1.06,2.34,1.88c-.1.36-.4.53-.86.53h-11.16l-.26-.96h8.75l1.19-1.45Zm.03-3.5s1.39,1.02,2.31,1.85c-.1.36-.4.53-.83.53h-11.16l-.26-.96h8.71l1.22-1.42Zm10,13.43c-.2.33-.53.43-1.25.5-.86,2.48-2.14,4.82-3.96,6.83,1.98,1.22,4.32,2.05,6.96,2.64l-.03.36c-1.32.26-2.28,1.29-2.67,2.77-2.51-.99-4.59-2.21-6.27-3.86-1.82,1.49-3.96,2.71-6.57,3.66l-.26-.43c2.21-1.25,4.06-2.91,5.48-4.79-1.49-1.95-2.54-4.46-3.27-7.62h-1.68l-.26-.96h8.84l1.85-1.82,3.1,2.71Zm-11.22.07c.89,2.41,2.21,4.32,3.93,5.81,1.12-1.82,1.95-3.76,2.47-5.81h-6.4Z"/>
        <path class="cls-1" d="m201.37.83s2.11,1.62,3.43,2.77c-.1.36-.46.53-.89.53h-7.39c-.86,1.32-1.92,2.74-2.87,3.7h5.18l1.49-1.58,3.07,2.38c-.13.2-.56.46-1.12.56v14.49c-.03.23-1.55.92-2.64.92h-.53v-1.49h-8.71v.96c0,.33-1.25,1.06-2.61,1.06h-.5V6.48l3.27,1.35h2.08c.13-.99.3-2.44.4-3.7h-6.87c.33.26.63.53.89.79-.1.36-.43.53-.92.53h-4.16v20.66c0,2.28-.56,3.93-4.36,4.26-.07-1.02-.23-1.82-.66-2.31-.5-.53-1.25-.92-2.84-1.16v-.46s3.24.23,3.93.23c.56,0,.73-.23.73-.69V5.45h-4.72l-.26-.96h7.95l1.88-2.48s.79.63,1.68,1.39l-.07-.23h14.22l1.92-2.34Zm-18.62,29.97c3.17-1.52,6.83-4.36,8.58-6.6l3.63,2.21c-.2.3-.56.33-1.09.17-2.34,1.91-6.96,3.89-10.86,4.69l-.26-.46Zm7.62-22.01v3.73h8.71v-3.73h-8.71Zm0,8.48h8.71v-3.79h-8.71v3.79Zm8.71,4.88v-3.93h-8.71v3.93h8.71Zm-3.66,2.38c10.69,1.06,9.47,7.85,5.94,6.34-1.19-2.08-4.03-4.62-6.21-6.04l.26-.3Z"/>
        <path class="cls-1" d="m244.17,8.52c-.2.23-.66.5-1.25.59v20.59c-.03.33-1.39,1.12-2.48,1.12h-.46v-2.34h-8.75v1.58c0,.33-1.06.99-2.31.99h-.43v-6.87c-.13.1-.33.13-.56.13h-5.94v6.04c0,.2-.92.83-2.38.83h-.46v-6.87h-5.68l-.26-.96h5.94v-3.99h-1.98v.99c0,.23-1.12.86-2.24.86h-.36V7.76l2.81,1.19h1.78v-2.97h-5.54l-.26-.96h5.81V.57l3.93.36c-.03.43-.3.73-1.09.86v3.23h1.55l1.68-2.24s2.01,1.55,3.2,2.67c-.1.36-.43.53-.89.53h-5.54v2.97h1.78l1.25-1.35,2.71,2.08c-.17.23-.59.46-1.12.56v9.54c-.03.23-1.29.89-2.18.89h-.36v-1.29h-2.08v3.99h1.95l1.68-2.18s1.68,1.25,2.87,2.34V6.44l2.91,1.32h2.8V.67l3.93.4c-.1.5-.36.83-1.19.96v5.74h2.74l1.48-1.62,3,2.38Zm-27,1.39v3.86h2.11v-3.86h-2.11Zm0,8.51h2.11v-3.7h-2.11v3.7Zm4.69-8.51v3.86h2.21v-3.86h-2.21Zm2.21,8.51v-3.7h-2.21v3.7h2.21Zm7.16-9.7v8.38h2.97v-8.38h-2.97Zm0,18.81h2.97v-9.47h-2.97v9.47Zm5.71-18.81v8.38h3.04v-8.38h-3.04Zm3.04,18.81v-9.47h-3.04v9.47h3.04Z"/>
        <path class="cls-1" d="m257.54,10.5c2.01,5.91.83,10.03-.59,12.08-.92,1.45-2.54,1.82-3.43.96-.69-.73-.46-1.82.26-2.64,1.68-1.65,3.3-5.88,3.23-10.36l.53-.03Zm8.19-3.6c-.03.43-.36.79-1.16.89v17.62c0,.86.36,1.12,2.01,1.12h4.29c1.75,0,3.14-.03,3.76-.07.53-.07.79-.2.99-.59.4-.69.96-2.74,1.58-5.35h.4l.1,5.58c1.06.4,1.35.76,1.35,1.39,0,1.55-1.58,2.18-8.42,2.18h-4.46c-3.63,0-4.75-.66-4.75-3.37V6.48l4.29.43Zm5.15,3.14c-.63-2.97-2.94-6.54-4.92-8.94l.36-.23c10.46,4.36,7.99,11.75,4.55,9.18Zm9.9,12.91c-.36-3.1-1.42-8.12-4.19-11.55l.33-.26c10.63,6.93,6.6,15.18,3.86,11.82Z"/>
        <path class="cls-1" d="m299.74,21.46c1.49-.43,3-.89,4.55-1.35l.13.43c-2.01,1.32-4.98,3.27-9.21,5.64-.13.43-.4.76-.76.89l-1.91-3.73c.89-.2,2.38-.56,4.19-1.06v-11.35h-3.83l-.26-.96h4.09V1.26l4.22.43c-.1.46-.36.79-1.22.92v7.36h1.02l1.49-2.31s1.72,1.62,2.64,2.74c-.07.36-.4.53-.86.53h-4.29v10.53Zm22.34,5.45c1.09.36,1.39.69,1.39,1.25,0,1.49-1.62,1.95-8.78,1.92h-4.75c-3.63,0-4.85-.63-4.85-3.3v-12.58l-2.94,1.29-.66-.76,3.6-1.55V5.09l4.12.46c-.07.43-.4.79-1.16.89v5.45l3.53-1.55V.44l4.09.43c-.1.46-.36.79-1.22.92v7.29l3.86-1.65.07-.03,1.55-1.58,2.81,2.9c-.26.26-.63.4-1.32.43-.76,3.89-2.24,9.54-4.16,13.27l-.43-.23c.79-4.09,1.32-9.77,1.52-13.73l-3.89,1.68v13.3c0,.33-1.25.99-2.34.99h-.53v-13.04l-3.53,1.55v13.1c0,.96.4,1.29,2.18,1.29h4.65c1.98,0,3.43-.03,4.13-.1.53-.03.83-.17,1.09-.5.36-.59.89-2.31,1.49-4.62h.4l.1,4.79Z"/>
        <path class="cls-1" d="m346.44,20.37c-1.95.99-4.62,2.28-8.09,3.8v6.07c-.03.23-.83.96-2.58.96h-.4v-5.74l-.96.4c-.17.4-.46.69-.79.83l-1.82-3.63c.86-.13,2.05-.36,3.56-.69V2.75l3.1,1.45c1.55-1.06,3.17-2.38,4.52-3.56l3.53,2.74c-.23.3-.53.33-1.19.17-2.05.69-4.72,1.42-7,1.85v4.55h2.61l1.65-2.15s1.88,1.52,3,2.57c-.1.36-.4.53-.89.53h-6.37v5.08h2.67l1.68-2.24s1.91,1.55,3.04,2.67c-.1.36-.4.53-.86.53h-6.53v4.79c2.41-.53,5.21-1.16,7.99-1.82l.1.46Zm14.72-3.93c-.23.3-.56.4-1.35.46-1.15,2.8-2.77,5.38-4.88,7.49,2.41,1.78,5.35,2.97,8.58,3.76l-.07.36c-1.32.23-2.31,1.19-2.77,2.67-3.1-1.25-5.64-2.9-7.66-5.08-2.94,2.28-6.67,4.06-11.49,5.15l-.23-.46c4.32-1.55,7.76-3.7,10.36-6.44-1.49-2.11-2.54-4.75-3.3-7.95h-2.11l-.3-.96h10.43l1.81-1.75,2.97,2.74Zm-16.27-2.01c2.81-2.57,3.14-5.81,3.14-8.61V1.56l3.4,1.32h3.63l1.52-1.62,2.94,2.41c-.23.23-.66.4-1.22.5v5.54c0,.36.07.46.46.46h1.55c.13,0,.36,0,.53-.03.17,0,.43-.07.63-.13h.33l.13.07c.76.33,1.02.59,1.02,1.16,0,1.16-1.02,1.68-3.83,1.68h-1.42c-2.11,0-2.34-.66-2.34-2.41V3.84h-4.39v1.98c0,2.67-.59,6.7-5.74,9.01l-.33-.4Zm4.13,1.98c.86,2.57,2.24,4.69,3.99,6.4,1.52-1.91,2.67-4.06,3.47-6.4h-7.46Z"/>
        <path class="cls-1" d="m417.06,7.6c-.2.26-.73.56-1.35.69v18.88c0,2.28-.53,3.63-4.59,3.99-.13-.96-.36-1.72-.92-2.21-.59-.5-1.52-.89-3.3-1.16v-.5s3.96.3,4.85.3c.66,0,.83-.23.83-.76V7.73h-20.56v22.31c0,.36-1.25,1.12-2.57,1.12h-.56V5.35l3.4,1.45h5.84c.73-1.91,1.48-4.42,1.91-6.21l4.85,1.19c-.17.4-.53.66-1.25.66-1.06,1.25-2.48,2.94-3.96,4.36h12.58l1.52-1.75,3.3,2.54Zm-8.71,15.78c-.03.23-1.49.89-2.48.89h-.46v-2.74h-6.47v2.71c0,.33-1.25.96-2.41.96h-.46v-13.83l3,1.25h6.01l1.49-1.58,3.17,2.38c-.23.26-.73.53-1.39.69v9.27Zm-2.94-2.77v-7.03h-6.47v7.03h6.47Z"/>
        <path class="cls-1" d="m453.33,25.88s2.41,1.78,3.86,3.07c-.1.36-.46.53-.96.53h-29.51l-.26-.96h12.61V.93l4.59.5c-.07.46-.33.79-1.19.92v10.86h6.34l2.11-2.61s2.31,1.75,3.73,3.04c-.1.36-.43.53-.89.53h-11.29v14.36h8.78l2.08-2.64Z"/>
        <path class="cls-1" d="m473.65,23.64c2.71,2.71,6.37,3.3,13,3.3,3.6,0,6.5,0,10.13-.2v.4c-1.45.3-2.21,1.55-2.41,3.07h-8.85c-6.7,0-9.54-1.39-12.38-5.41-.43-.66-.76-.56-1.12,0-.69,1.09-2.31,3.47-3.4,5.25.1.3-.07.56-.3.76l-2.54-3.73c2.24-1.29,5.81-3.89,6.63-3.89h.17c6.17-3.37,12.61-8.65,16.04-13.66h-20.66l-.3-.96h21.16l2.01-1.85,3.14,2.91c-.26.33-.59.43-1.49.46-4.09,5.41-11.06,10.46-18.98,13.47l.13.1Zm2.94-23.07c9.21,2.24,6.57,8.98,3.3,6.63-.36-2.21-2.05-4.82-3.63-6.4l.33-.23Z"/>
        <path class="cls-1" d="m532.99,9.88s2.01,1.42,3.23,2.51c-.07.36-.43.53-.89.53h-13.17c-.86,1.39-1.98,3.04-2.97,4.29h10.36l1.45-1.65,3.3,2.48c-.23.23-.69.5-1.32.66v8.48c0,2.21-.43,3.43-3.96,3.79-.07-.99-.2-1.75-.56-2.21-.4-.46-1.02-.83-2.28-1.02v-.46s2.44.17,3.04.17c.53,0,.66-.2.66-.63v-8.65h-4.13v9.24c0,.13-.92.69-2.34.69h-.53v-9.93h-4.03v10.4c0,.17-.92.73-2.34.73h-.5v-11.12h-3.89v11.82c0,.3-1.32,1.02-2.54,1.02h-.46v-15.15l3.27,1.35h5.12c.36-1.29.73-2.97.99-4.29h-12.31l-.26-.96h25.35l1.72-2.08Zm-21.49.53l-3.27-1.98c.23-.26.59-.56.99-.83V1.82l4.32.49c-.07.36-.36.63-1.29.79v4.75h7.06V.5l4.32.4c-.07.46-.36.79-1.22.92v6.04h7.26V1.96l4.36.4c-.1.46-.36.76-1.22.92v6.17c0,.23-1.39.73-2.57.73h-.56v-1.35h-17.2l-.99,1.58Z"/>
      </g>
      <g class="cls-3">
        <path class="cls-2" d="m26.34,2.28s2.31,1.68,3.73,2.94c-.1.36-.43.53-.89.53h-12.64v4.32h7.56l1.55-1.75,3.37,2.61c-.23.23-.73.53-1.39.66v15.31c0,2.21-.53,3.56-4.52,3.93-.1-.99-.26-1.75-.76-2.18-.56-.5-1.35-.89-3.04-1.12v-.5s3.5.26,4.36.26c.59,0,.76-.26.76-.73v-15.55H5.91v18.62c0,.36-1.35,1.16-2.67,1.16h-.5V8.61l3.43,1.45h7.2v-4.32H.26l-.26-.96h13.37V0l4.36.4c-.07.46-.33.79-1.19.92v3.47h7.79l2.01-2.51Zm-9.93,20.76v6.17c0,.17-.96.69-2.51.69h-.53v-6.87h-6.24l-.26-.96h6.5v-4.03h-5.45l-.26-.96h8.22c.63-1.65,1.32-3.99,1.75-5.64l3.86,1.12c-.13.4-.56.66-1.25.63-.89,1.12-2.18,2.64-3.47,3.89h2.01l1.52-1.78s1.72,1.25,2.74,2.21c-.07.36-.4.53-.83.53h-5.81v4.03h2.38l1.65-2.01s1.88,1.42,3.04,2.44c-.1.36-.43.53-.89.53h-6.17Zm-7.13-11.42c6.7,1.95,3.89,6.83,1.45,4.72-.07-1.52-.96-3.4-1.78-4.52l.33-.2Z"/>
        <path class="cls-2" d="m62.34,6.9s2.61,1.45,4.29,2.44c-.03.36-.36.63-.79.73l-15.15,2.77v12.05c0,1.02.46,1.35,2.21,1.35h4.42c1.58,0,3.1-.03,3.7-.1.43,0,.89-.03,1.22-.1.33-.03.83-.13,1.22-.3h.33l.17.03c1.22.43,1.68.83,1.68,1.45,0,1.55-1.68,2.14-8.65,2.14l-4.42-.03c-3.76,0-5.08-.66-5.08-3.6v-12.31l-11.16,2.01-.43-.89,11.58-2.08V.73l4.39.46c-.03.43-.36.83-1.19.92v9.77l9.93-1.82,1.72-3.17Z"/>
        <path class="cls-2" d="m71.94,30.46c1.91-1.91,3.86-5.12,4.98-8.65l4.03,1.72c-.17.36-.63.59-1.35.53-1.85,3.14-4.49,5.41-7.23,6.77l-.43-.36ZM102.96,3.27c-.23.26-.73.56-1.39.69v22.91c0,2.21-.43,3.5-4.12,3.86-.1-.96-.3-1.72-.69-2.18-.5-.5-1.22-.83-2.71-1.06v-.5s3.14.2,3.8.2c.56,0,.73-.2.73-.69v-8.32h-5.41c-.46,4.69-2.05,9.24-7.1,12.51l-.43-.33c2.54-2.71,3.76-5.84,4.36-9.27-.13.03-.3.07-.46.07h-17.29l-.26-.92h3.37V6.44h-2.54l-.26-.96h2.81V.56l3.99.43c-.07.4-.33.69-1.09.83v3.66h4.92V.56l4.16.43c-.1.43-.36.76-1.16.89v3.6h.17l1.29-2.01s1.52,1.45,2.38,2.44c-.07.36-.4.53-.83.53h-3v13.8h.13l1.45-2.21s1.39,1.29,2.34,2.34c.33-2.18.4-4.46.4-6.77V1.16l3.37,1.32h4.39l1.45-1.72,3.27,2.51Zm-24.72,3.17v3.66h4.92v-3.66h-4.92Zm0,8.58h4.92v-3.96h-4.92v3.96Zm0,5.21h4.92v-4.26h-4.92v4.26Zm3.96,1.85c7.79,1.98,5.28,7.49,2.51,5.45-.3-1.82-1.65-3.93-2.84-5.21l.33-.23Zm16.37-4.85v-6.57h-5.21v2.9c0,1.22-.03,2.44-.1,3.66h5.31Zm-5.21-13.8v6.27h5.21V3.43h-5.21Z"/>
      </g>
    </g>
  </g>
</svg>