<?xml version="1.0" encoding="UTF-8"?>
<svg id="_圖層_2" data-name="圖層 2" xmlns="http://www.w3.org/2000/svg" viewBox="0 0 118.62 30.07">
  <g id="_圖層_1-2" data-name="圖層 1">
    <g>
      <g>
        <g>
          <path d="M34.68,5.11v3.97c.13,0,.29,0,.5-.02,.21-.01,.42-.04,.64-.1,.22-.05,.43-.13,.64-.23,.21-.1,.38-.24,.53-.44v-3.19h3.74v2.67c.11,0,.26,0,.46-.02,.2-.01,.41-.04,.64-.1,.23-.05,.45-.13,.66-.23,.22-.1,.41-.24,.57-.44v-1.89h5.23l.24-.52h-5.47v-.9s0,0,0,0V1.64c-.98-.06-1.84-.28-2.33-1.26V4.59h-3.74V1.63c-.97-.05-1.82-.28-2.3-1.24V4.59h-4.96l.19,.52h4.77Z" fill="#fff"/>
          <path d="M47.71,23.81c-.04-.72-.04-1.47-.01-2.26,.03-.79,.07-1.56,.12-2.29-.2,.69-.42,1.51-.66,2.46-.24,.94-.48,1.76-.72,2.46-.11,.33-.24,.53-.41,.62-.16,.09-.33,.1-.51,.03-.18-.06-.37-.19-.57-.37-.2-.18-.39-.37-.57-.57-.49-.54-.91-1.13-1.27-1.76,.92-1.37,1.76-3.04,2.52-5.01,.25,0,.45-.07,.6-.2,.14-.13,.27-.33,.38-.59l-2.82-2.37c-.24,.98-.52,1.9-.85,2.76-.33,.87-.71,1.7-1.12,2.5-.29-.89-.5-1.76-.62-2.6-.09-.56-.18-1.2-.26-1.92-.08-.72-.15-1.48-.2-2.31h7.45l.24-.49h-2.98c.2-.17,.37-.43,.5-.78,.14-.35,.16-.81,.07-1.4-.05-.3-.17-.56-.34-.78-.17-.22-.38-.39-.64-.52-.25-.13-.54-.22-.85-.28-.32-.05-.64-.07-.96-.05,.07,.24,.16,.52,.27,.83,.11,.31,.22,.64,.34,.98,.12,.34,.23,.68,.35,1.04,.12,.36,.22,.68,.31,.96h-3.79c-.02-.37-.03-.74-.04-1.12,0-.38-.01-.77-.01-1.19,.18-.04,.34-.16,.49-.36,.14-.2,.24-.44,.3-.75l-3.17-.72c.04,1.5,.09,2.87,.16,4.13h-4.25c-.31-.37-.67-.67-1.1-.91-.42-.24-.85-.39-1.29-.46,.02,1.5,.03,3.02,.03,4.59s-.06,3.14-.18,4.73c-.12,1.59-.32,3.2-.61,4.83-.29,1.63-.71,3.26-1.27,4.91,.81-.91,1.51-1.86,2.1-2.86,.59-1,1.06-2.15,1.42-3.46,.36-1.31,.61-2.84,.76-4.59,.14-1.74,.19-3.84,.14-6.29h4.31c.13,1.89,.32,3.6,.57,5.15,.25,1.55,.62,3.01,1.11,4.37-1.1,1.58-2.29,2.97-3.55,4.16-1.26,1.19-2.47,2.24-3.6,3.15,1.72-.56,3.25-1.23,4.59-1.98,1.35-.76,2.56-1.69,3.65-2.8,.38,.69,.86,1.42,1.45,2.18,.59,.76,1.2,1.4,1.83,1.94,.63,.53,1.25,.88,1.86,1.04,.61,.16,1.12,0,1.56-.47,.2-.22,.34-.5,.43-.86,.09-.36,.15-.75,.19-1.19-.27-.33-.47-.77-.6-1.35-.13-.57-.21-1.22-.24-1.94Z" fill="#fff"/>
        </g>
        <g>
          <path d="M92.31,3.38l-2.36,.98h-2.11V1.38c-1.02-.06-1.91-.29-2.41-1.3V4.35h-3.2l.22,.52h2.98v3.45h-4.36l.19,.52h4.17v3.54h-2.87l.22,.49h2.66v3.41h-3.25l.22,.52h3.04v3.61h-4.23l.22,.49h4.01v4.16c.11,.02,.27,.02,.49,0,.22-.02,.44-.07,.68-.15,.23-.08,.46-.18,.69-.33,.23-.14,.41-.31,.56-.5v-3.19h6.02l.27-.49h-6.29v-3.61h4.96l.24-.52h-5.2v-3.41h2.03v.33c.16,.2,.36,.35,.58,.46,.23,.11,.46,.19,.69,.24,.23,.05,.46,.09,.66,.1,.21,.01,.37,0,.5-.05v-5.11h1.9l.27-.52h-2.17V3.38Zm-2.44,9.01h-2.03v-3.54h2.03v3.54Zm0-4.07h-2.03v-2.33s0,0,0,0v-1.12h2.03v3.45Z" fill="#fff"/>
          <path d="M86.43,26.09c-1.19-.1-2.33-.36-3.4-.8-1.08-.43-2.07-1.15-2.99-2.15,.43-1.11,.79-2.37,1.08-3.79,.29-1.42,.51-3.12,.68-5.09,.38-.22,.63-.57,.76-1.07l-2.68-2.6c-.04,.33-.06,.64-.07,.94,0,.3-.03,.61-.07,.91h-1.14l1.98-7.45c.2,.04,.37,.02,.53-.08,.15-.1,.28-.32,.37-.67l-2.63-2.73-.54,2.18h-3.06l.16,.52h2.76l-2.09,8.39c.31,.82,.64,1.33,.99,1.51,.35,.18,.73,.16,1.12-.08l.3-1.11h1.19c-.13,1.47-.28,2.88-.46,4.23-.18,1.34-.42,2.66-.73,3.93-.45-.76-.88-1.61-1.27-2.55-.4-.94-.78-2.02-1.14-3.24,.16,1.73,.4,3.26,.7,4.57,.31,1.31,.68,2.48,1.11,3.5-.34,1.11-.74,2.18-1.18,3.22-.44,1.04-.95,2.07-1.53,3.09,.76-.69,1.45-1.38,2.07-2.07,.62-.68,1.19-1.45,1.69-2.29,.74,1.08,1.59,1.92,2.56,2.5,.97,.59,2.04,1,3.23,1.25,1.18,.25,2.46,.37,3.83,.37s2.84-.04,4.39-.13c.09-.43,.18-.81,.27-1.14,.09-.33,.19-.63,.3-.91,.11-.28,.23-.55,.35-.81,.13-.26,.27-.55,.43-.88-1.43,.15-2.8,.3-4.12,.44-1.32,.14-2.57,.16-3.77,.07Z" fill="#fff"/>
        </g>
        <path d="M64.91,12.81v-2.27c-1.11-.06-2.08-.32-2.63-1.42v4.39h-5.15c.05-.87,.09-1.21,.11-2.08,.02-.87,.03-1.76,.03-2.67v-.33h10.27v.85c.18,.24,.39,.42,.62,.55,.23,.13,.47,.23,.7,.29,.23,.06,.46,.1,.66,.1s.37-.02,.47-.07V1.41l-2.47,1.04h-10.27c-.38-.43-.81-.75-1.3-.94-.49-.2-.93-.26-1.33-.2l.03,8.68c0,2.06-.05,3.47-.14,5.28-.09,1.81-.23,3.53-.41,5.15-.18,1.63-.41,3.17-.69,4.63-.28,1.46-.61,2.88-.99,4.24,.78-1.17,1.44-2.36,1.98-3.58,.54-1.21,.99-2.46,1.35-3.72,.36-1.27,.65-2.56,.85-3.89,.21-1.32,.36-2.67,.45-4.03h5.2v5.2h-2.01c-.36-.3-.75-.57-1.18-.8-.42-.23-.9-.38-1.42-.47v11.25c.43,.02,.87-.02,1.31-.11,.44-.1,.87-.33,1.29-.7v-1.43h6.8v1.24c.18,.24,.39,.43,.64,.57,.24,.14,.48,.24,.72,.31,.23,.06,.46,.1,.68,.11,.22,.01,.39,0,.51-.05v-11.15l-2.55,1.2v.03h-2.17v-5.2h6.34l.27-.59h-6.61v-.7Zm-7.64-9.81h10.27V7.88h-10.27V3Zm9.81,16.84v6.67h-6.8v-6.67h6.8Z" fill="#fff"/>
        <g>
          <polygon points="106.01 10.24 98.08 10.24 98.31 10.74 105.71 10.74 106.01 10.24" fill="#fff"/>
          <path d="M106.86,6.02h-3.61V1.3c-1.02-.06-1.91-.29-2.41-1.3V6.02h-3.61l.24,.51h9.1l.3-.51Z" fill="#fff"/>
          <polygon points="98.31 15.41 105.71 15.41 106.01 14.96 98.08 14.96 98.31 15.41" fill="#fff"/>
          <path d="M106.09,28.8v-11.18l-2.77,1.19h-2.6c-.4-.28-.81-.51-1.23-.7-.43-.19-.93-.32-1.5-.4v11.03c.48,.04,.95,.01,1.41-.07,.47-.09,.93-.3,1.38-.64v-.98h2.48v.92c.2,.22,.43,.39,.7,.51,.27,.12,.54,.21,.8,.27,.27,.06,.52,.09,.74,.1,.23,0,.42,0,.58-.04Zm-2.83-2.26h-2.48v-7.23h2.48v7.23Z" fill="#fff"/>
          <path d="M113.07,24.4c.69-1.06,1.29-2.29,1.8-3.68,.51-1.39,.93-2.99,1.26-4.8,.24-.05,.41-.13,.53-.24s.19-.29,.24-.54l-2.14-1.23c.08,0,.15,0,.24,0,.58,0,1.07,0,1.47,0,.41,0,.75-.06,1.03-.17,.28-.11,.51-.29,.68-.53,.18-.25,.33-.61,.45-1.09-.3-.1-.53-.28-.68-.56-.16-.27-.27-.59-.33-.95-.06-.36-.09-.74-.09-1.15s0-.79,.03-1.15c-.16,.48-.33,.96-.51,1.43-.18,.47-.36,.9-.54,1.28-.18,.38-.36,.69-.54,.93-.18,.24-.34,.37-.48,.38-.14,0-.25-.05-.33-.15-.08-.1-.12-.31-.12-.62V1.32l-2.47,.59h-2.59c-.34-.21-.72-.36-1.16-.45-.44-.09-.91-.15-1.43-.17l.03,3.25c0,.95-.01,1.86-.03,2.73-.02,.87-.1,1.71-.24,2.52-.14,.81-.35,1.6-.62,2.38-.28,.78-.67,1.56-1.19,2.33,1.19-.6,2.11-1.29,2.75-2.07,.64-.78,1.11-1.61,1.4-2.49,.29-.88,.45-1.79,.48-2.72,.03-.93,.04-1.85,.04-2.76l-.03-2.07h2.47l.03,9.66c0,.38,.04,.7,.13,.94,.09,.25,.23,.44,.43,.57,.2,.14,.46,.23,.77,.28,.17,.03,.37,.05,.59,.06-.02,.12-.03,.16-.06,.34-.04,.25-.08,.5-.12,.75h-7.12l.13,.45h.54c.21,1.85,.55,3.51,1,4.99,.46,1.51,1.07,2.87,1.82,4.08-.49,.71-.98,1.34-1.49,1.89-.51,.54-1.01,1.04-1.5,1.48-.49,.44-.97,.84-1.44,1.2-.46,.36-.89,.69-1.28,1,1.36-.34,2.62-.83,3.76-1.46,1.14-.64,2.19-1.48,3.12-2.51,.66,.78,1.41,1.47,2.23,2.08,.83,.61,1.76,1.17,2.8,1.67,.2-.6,.43-1.13,.69-1.59,.26-.46,.54-.92,.83-1.38-1.08-.23-2.04-.55-2.91-.98-.86-.42-1.65-.93-2.36-1.5Zm-1.48-1.46c-.96-1.11-1.74-2.33-2.32-3.65-.56-1.28-1.01-2.57-1.33-3.86h6.19c-.3,1.57-.66,2.97-1.09,4.18-.44,1.24-.93,2.35-1.45,3.33Z" fill="#fff"/>
        </g>
      </g>
      <g>
        <path d="M6.77,1.39H0V30.07H11.17V1.39H6.77Zm2.02,26.3H2.38v-4.12h6.42v4.12Zm0-13.59h-2.02v-1.62h2.02v1.62Zm0-4H4.4v9.89h2.38v-3.51h2.02v4.71H2.38V3.77h2.02v4.83h2.38V3.77h2.02v6.34Z" fill="#fff"/>
        <polygon points="21.71 1.39 14.73 1.39 12.36 1.39 12.36 3.77 12.36 6.22 12.36 8.6 14.73 8.6 17.86 8.6 17.86 6.22 14.73 6.22 14.73 3.77 21.71 3.77 21.71 14.11 14.73 14.11 14.73 10.11 12.36 10.11 12.36 14.11 12.36 16.48 12.36 20 14.73 20 14.73 16.48 21.71 16.48 21.71 27.69 14.73 27.69 14.73 21.2 12.36 21.2 12.36 27.69 12.36 27.69 12.36 30.07 12.36 30.07 14.73 30.07 21.71 30.07 24.08 30.07 24.08 27.69 24.08 16.48 24.08 14.11 24.08 3.77 24.08 1.39 21.71 1.39" fill="#fff"/>
      </g>
    </g>
  </g>
</svg>